<?xml version="1.0" standalone="no"?>
<!DOCTYPE svg PUBLIC "-//W3C//DTD SVG 20010904//EN"
 "http://www.w3.org/TR/2001/REC-SVG-20010904/DTD/svg10.dtd">
<svg version="1.0" xmlns="http://www.w3.org/2000/svg"
 width="1344.000000pt" height="768.000000pt" viewBox="0 0 1344.000000 768.000000"
 preserveAspectRatio="xMidYMid meet">

<g transform="translate(0.000000,768.000000) scale(0.100000,-0.100000)"
fill="#000000" stroke="none">
<path d="M0 6876 l0 -804 128 -52 c276 -112 326 -145 386 -254 63 -114 70
-150 63 -330 -3 -89 -19 -309 -36 -491 -32 -362 -61 -721 -91 -1149 l-19 -278
-41 -54 c-37 -46 -47 -54 -87 -60 -48 -7 -303 -129 -303 -145 0 -12 27 -12 35
1 9 15 225 119 261 126 25 5 32 2 41 -19 14 -31 201 -124 313 -157 73 -21 255
-94 275 -110 6 -4 115 -61 244 -126 208 -105 243 -127 308 -188 41 -38 72 -71
69 -73 -2 -2 16 -23 40 -45 l45 -41 21 20 c19 20 25 45 58 260 0 1 8 0 18 -3
14 -5 14 -4 2 5 -8 5 -11 13 -8 17 10 9 67 -29 112 -74 33 -35 39 -47 41 -94
3 -51 42 -175 52 -165 2 3 -5 35 -16 72 -12 37 -21 77 -21 89 0 20 1 19 18 -5
9 -15 30 -37 46 -50 66 -55 129 -115 148 -142 19 -27 19 -29 2 -48 -14 -16
-15 -22 -4 -32 7 -6 10 -7 7 -1 -4 6 0 19 7 29 12 17 14 16 23 -11 6 -16 14
-37 18 -47 7 -18 5 -17 -33 2 -23 12 -47 21 -54 21 -7 0 -54 16 -103 36 -330
130 -547 185 -825 209 -507 43 -696 56 -907 62 l-233 6 0 -1391 0 -1392 2632
0 c2604 0 2631 0 2614 19 -41 46 -136 60 -536 81 -107 5 -263 15 -347 21
l-151 12 -7 36 c-3 20 -9 44 -12 55 -5 18 4 18 293 13 313 -6 417 -16 649 -63
202 -40 279 -74 325 -140 l23 -34 198 0 199 0 0 307 c0 437 -21 780 -51 845
-14 31 -81 78 -132 93 -42 12 -42 13 -45 64 -3 51 -3 51 27 51 65 0 134 -22
167 -54 28 -25 37 -44 49 -104 27 -132 39 -360 39 -784 l1 -418 1258 0 c1133
0 1257 2 1257 16 0 8 5 81 11 162 13 177 30 276 59 332 30 58 101 127 156 151
86 36 278 77 514 109 129 17 247 34 262 37 22 4 29 0 43 -28 9 -19 47 -64 83
-102 37 -37 64 -67 60 -67 -3 0 -111 -18 -240 -41 -128 -22 -258 -44 -288 -49
-141 -24 -220 -53 -274 -101 -74 -65 -109 -143 -131 -299 -8 -58 -15 -108 -15
-112 0 -5 70 -8 155 -8 l154 0 28 48 c44 76 68 109 113 156 52 54 175 118 281
146 86 22 327 39 436 31 39 -4 69 -3 66 1 -2 5 14 8 36 8 22 0 43 -5 46 -10
10 -16 -14 -40 -39 -41 -20 0 -21 -1 -1 -9 13 -6 -18 -9 -87 -9 -103 -1 -337
-39 -380 -62 -9 -5 -25 -9 -35 -9 -17 0 -105 -37 -143 -61 -8 -5 -31 -18 -51
-28 -36 -20 -149 -134 -149 -151 0 -6 829 -10 2160 -10 l2160 0 0 2108 0 2109
-52 33 c-87 54 -91 57 -150 112 -60 56 -208 256 -239 323 -13 29 -26 115 -45
309 -37 379 -29 475 52 603 18 29 50 63 71 77 21 14 111 50 201 82 l162 57 0
934 0 933 -1613 0 -1613 0 -48 -65 c-26 -36 -53 -71 -60 -78 -6 -7 -25 -30
-41 -52 -31 -41 -75 -97 -270 -340 -60 -75 -130 -163 -155 -195 -25 -32 -56
-71 -70 -88 -14 -17 -43 -54 -65 -83 -88 -115 -166 -213 -314 -397 -86 -107
-165 -206 -175 -220 -11 -15 -31 -42 -45 -59 -15 -18 -41 -52 -59 -75 -65 -86
-239 -307 -377 -479 -77 -97 -167 -211 -200 -254 -33 -43 -64 -83 -70 -89 -14
-16 -58 -73 -150 -196 -99 -132 -265 -340 -272 -340 -9 0 31 55 122 166 27 34
82 105 120 158 39 54 108 145 155 204 135 171 218 276 340 436 63 82 136 174
161 205 25 31 76 96 113 145 37 48 71 93 76 100 36 44 299 382 368 471 46 61
97 126 113 145 36 44 151 190 204 261 22 28 54 68 71 88 17 20 63 79 102 131
126 169 284 374 328 426 24 28 44 56 44 63 0 8 -79 11 -290 11 -246 0 -290 -2
-290 -14 0 -8 -4 -17 -9 -20 -5 -4 -7 3 -4 14 4 16 0 20 -20 20 -27 0 -72 -53
-143 -170 -21 -36 -63 -100 -91 -143 -29 -43 -53 -80 -53 -83 0 -2 -32 -59
-72 -127 -39 -67 -80 -140 -91 -161 -16 -33 -82 -136 -141 -221 -53 -76 -148
-229 -171 -275 -15 -30 -41 -71 -56 -91 -16 -20 -29 -41 -29 -46 0 -6 -25 -45
-55 -87 -30 -42 -55 -80 -55 -84 0 -5 -16 -25 -35 -46 -19 -21 -35 -46 -35
-55 0 -13 -62 -118 -92 -156 -15 -18 -148 -225 -148 -230 0 -3 -33 -56 -73
-118 -41 -62 -77 -124 -80 -138 -8 -33 -178 -289 -211 -316 -24 -21 -38 -62
-16 -48 17 11 11 -1 -30 -64 -31 -46 -44 -59 -58 -54 -13 5 -15 3 -5 -7 14
-15 11 -21 -54 -124 -31 -48 -48 -65 -55 -58 -11 11 27 87 108 213 23 36 45
75 48 87 4 12 12 22 17 22 5 0 14 11 19 25 16 41 190 329 209 345 7 6 71 110
71 115 0 2 22 39 50 82 27 43 70 114 96 158 53 91 65 111 160 254 108 162 121
182 161 251 88 152 169 280 222 348 62 82 59 77 120 182 24 41 54 91 66 110
12 19 41 67 64 105 42 70 98 160 221 354 36 56 86 135 112 176 l47 75 -2649 0
c-1458 0 -2650 -2 -2650 -5 0 -3 20 -41 45 -84 25 -43 45 -81 45 -85 0 -4 12
-26 28 -49 15 -23 38 -64 52 -92 13 -27 37 -68 53 -89 15 -22 25 -46 22 -53
-2 -8 0 -11 5 -8 5 3 21 -16 34 -42 14 -26 50 -86 80 -133 30 -47 71 -114 92
-150 20 -36 42 -72 49 -80 7 -8 29 -49 50 -90 22 -41 47 -87 56 -101 16 -23
66 -115 113 -207 10 -20 30 -55 45 -77 14 -22 54 -89 88 -150 34 -60 70 -123
79 -140 10 -16 41 -70 69 -120 28 -49 75 -130 104 -180 30 -49 98 -171 153
-270 56 -99 131 -230 168 -292 49 -80 67 -119 63 -135 -3 -16 -2 -19 5 -10 7
11 10 11 15 -3 4 -9 3 -13 -3 -10 -6 3 -10 2 -10 -3 0 -16 13 -22 26 -11 9 7
14 5 19 -10 3 -11 31 -61 61 -111 30 -50 53 -97 50 -103 -3 -8 -5 -8 -5 1 -1
7 -6 10 -11 7 -6 -4 -9 -1 -8 6 2 7 -4 13 -12 14 -8 0 -33 34 -56 77 -32 59
-39 80 -31 95 8 15 7 16 -4 5 -11 -10 -19 -3 -46 40 -22 35 -29 54 -22 59 8 5
2 21 -18 50 -90 132 -203 320 -203 337 0 6 -12 24 -26 41 -14 17 -23 31 -20
31 6 0 -80 166 -123 237 -16 26 -49 82 -72 123 -23 41 -57 96 -76 123 -19 26
-38 59 -44 73 -5 14 -29 57 -54 95 -25 38 -45 72 -45 75 0 3 -24 40 -54 82
-29 42 -68 104 -85 137 -29 55 -56 99 -119 200 -12 20 -17 33 -10 29 8 -5 9
-2 5 10 -4 10 -7 20 -7 22 0 3 -4 3 -8 0 -5 -3 -19 13 -33 35 -13 22 -49 80
-80 128 -31 49 -69 110 -84 137 -15 27 -35 60 -45 74 -30 44 -106 172 -154
262 -26 48 -64 113 -85 145 -20 32 -48 77 -61 100 l-23 42 -304 1 c-166 0
-303 -2 -303 -6 0 -3 33 -50 73 -104 39 -55 95 -131 122 -170 28 -39 61 -86
75 -104 14 -19 43 -59 65 -90 22 -31 76 -105 120 -164 75 -99 331 -449 365
-498 8 -12 62 -84 120 -160 57 -77 142 -191 187 -254 45 -63 86 -119 90 -125
9 -10 54 -70 170 -228 32 -42 76 -101 99 -130 22 -28 59 -79 82 -112 24 -33
65 -89 92 -125 27 -36 60 -79 72 -96 13 -18 58 -79 101 -135 125 -166 134
-179 214 -289 42 -58 81 -112 87 -120 9 -13 9 -13 -6 -2 -9 7 -36 41 -60 74
-24 33 -64 85 -89 116 -25 32 -66 86 -90 121 -78 113 -103 147 -137 187 -56
68 -69 85 -222 289 -83 110 -173 229 -200 265 -28 35 -50 67 -50 71 0 4 -17
28 -37 52 -21 24 -66 82 -99 128 -107 147 -264 352 -299 392 -9 11 -122 165
-183 250 -13 17 -54 73 -91 122 -143 190 -182 242 -223 296 -24 31 -63 85 -88
120 -25 34 -72 99 -105 143 -101 137 -162 223 -181 255 l-18 31 -1738 0 -1738
0 0 -804z m9551 731 c-10 -9 -11 -8 -5 6 3 10 9 15 12 12 3 -3 0 -11 -7 -18z
m-5421 -41 c0 -12 -5 -7 -19 24 -11 24 -11 24 3 6 9 -11 16 -24 16 -30z m5393
2 c-86 -135 -196 -298 -200 -298 -6 0 15 36 80 135 34 52 73 113 87 135 13 22
28 40 33 40 4 0 4 -6 0 -12z m-5363 -53 c0 -5 -5 -3 -10 5 -5 8 -10 20 -10 25
0 6 5 3 10 -5 5 -8 10 -19 10 -25z m64 -104 c9 -17 14 -31 12 -31 -6 0 -66
105 -66 116 0 10 28 -35 54 -85z m44 -77 c-4 -3 -12 5 -18 18 -12 22 -12 22 6
6 10 -10 15 -20 12 -24z m5038 -96 c-9 -13 -26 -38 -37 -55 -24 -38 -36 -44
-18 -10 15 28 60 87 66 87 3 0 -2 -10 -11 -22z m-4546 -87 c0 -12 -28 36 -34
59 -4 14 2 8 14 -14 11 -22 20 -42 20 -45z m-390 19 c6 -11 8 -20 6 -20 -3 0
-10 9 -16 20 -6 11 -8 20 -6 20 3 0 10 -9 16 -20z m111 -172 c8 -15 8 -18 0
-14 -6 4 -16 16 -22 28 -8 15 -8 18 0 14 6 -4 16 -16 22 -28z m49 -79 c0 -5
11 -27 25 -49 14 -22 23 -40 20 -40 -7 0 -65 91 -65 103 0 4 5 5 10 2 6 -3 10
-11 10 -16z m102 -174 c28 -55 7 -31 -27 30 -15 28 -19 41 -10 30 9 -11 26
-38 37 -60z m73 -120 c16 -27 21 -43 13 -35 -9 8 -28 38 -43 65 -16 28 -21 43
-13 35 9 -8 28 -37 43 -65z m4195 -5 c-6 -11 -13 -20 -16 -20 -2 0 0 9 6 20 6
11 13 20 16 20 2 0 0 -9 -6 -20z m-39 -63 c-10 -9 -11 -8 -5 6 3 10 9 15 12
12 3 -3 0 -11 -7 -18z m-4013 -175 c34 -54 62 -103 62 -108 0 -5 -8 5 -18 21
-10 17 -42 68 -71 114 -29 45 -48 81 -44 78 5 -3 37 -50 71 -105z m150 -244
c-4 -10 -58 83 -58 98 0 5 14 -13 31 -39 16 -27 29 -53 27 -59z m-3258 -42
c36 -18 95 -49 130 -68 184 -101 525 -291 571 -319 29 -17 96 -53 148 -80 53
-27 114 -59 136 -72 111 -65 217 -117 227 -111 7 4 8 3 4 -4 -4 -7 -1 -12 9
-12 10 0 15 7 13 18 -2 12 -14 18 -36 19 -34 1 -59 13 -30 13 9 0 18 7 22 15
3 8 10 15 16 15 6 0 9 -4 6 -9 -4 -5 2 -7 13 -4 19 5 87 -24 78 -33 -3 -3 -19
2 -36 11 -17 8 -31 12 -31 7 0 -13 50 -33 69 -27 10 3 54 -18 106 -50 50 -30
104 -61 120 -68 27 -13 259 -147 585 -337 262 -153 313 -182 475 -273 215
-121 231 -131 227 -146 -2 -8 4 -10 17 -6 11 3 22 2 24 -3 3 -4 -6 -7 -21 -6
-45 3 -48 4 -32 15 13 9 13 10 0 6 -21 -6 -52 12 -44 25 5 7 2 9 -9 5 -10 -4
-20 0 -26 11 -5 9 -13 14 -17 10 -4 -5 -13 -3 -21 3 -7 6 -13 7 -13 2 0 -13
138 -94 335 -197 39 -20 88 -47 110 -61 22 -13 54 -31 70 -40 72 -40 125 -81
125 -97 0 -25 -29 -22 -86 9 -158 85 -252 127 -286 127 -21 0 -38 4 -38 7 0 4
-7 10 -16 13 -24 9 -84 -15 -84 -34 0 -10 3 -11 8 -3 13 21 64 36 73 21 10
-16 2 -28 -19 -27 -14 0 -13 2 3 9 l20 9 -20 0 c-37 1 -48 -14 -21 -28 13 -8
29 -10 35 -7 6 4 11 1 11 -7 0 -8 12 -18 26 -21 15 -4 24 -9 21 -12 -5 -6
-188 70 -221 92 -12 7 -61 29 -111 48 -49 19 -173 74 -275 122 -102 47 -198
92 -215 98 -16 7 -64 28 -105 48 -198 95 -571 269 -625 291 -33 14 -154 71
-269 127 -160 77 -206 104 -195 112 11 8 10 9 -4 4 -10 -3 -30 -3 -43 0 -23 6
-23 7 -7 20 17 12 16 13 -4 7 -19 -4 -23 -1 -23 19 0 21 10 29 55 49 32 14 50
26 43 30 -16 10 37 23 59 15 15 -5 14 -3 -2 9 -12 10 -30 14 -45 10 -19 -4
-21 -3 -10 5 16 10 8 14 -24 10 -12 -1 -16 2 -11 11 5 8 4 10 -4 5 -7 -5 -9
-16 -5 -29 6 -20 5 -20 -10 -8 -12 10 -14 17 -6 25 15 15 12 29 -6 22 -9 -4
-13 -2 -8 5 4 8 -1 9 -17 4 -17 -4 -20 -3 -10 3 11 8 7 14 -20 27 -19 10 -77
40 -129 68 -52 27 -131 68 -175 90 -44 22 -109 57 -145 77 -36 20 -170 90
-298 156 -129 65 -240 127 -248 138 -30 43 -10 96 41 109 42 10 62 6 125 -27z
m10495 18 c37 -17 48 -37 39 -68 -7 -23 -43 -66 -55 -66 -13 0 -357 -168
-1254 -611 -149 -74 -286 -141 -305 -150 -19 -9 -75 -36 -125 -61 -49 -25
-113 -56 -142 -69 -28 -13 -50 -26 -47 -30 2 -4 -4 -6 -14 -5 -9 0 -16 -4 -15
-11 2 -7 -3 -10 -10 -8 -6 3 -39 -9 -72 -26 -33 -17 -53 -28 -45 -26 8 2 26 7
40 11 l25 7 -25 -15 c-14 -9 -38 -15 -53 -16 -16 0 -26 -4 -22 -9 3 -5 -1 -16
-9 -24 -8 -8 -12 -17 -9 -21 11 -10 23 -7 21 6 -4 19 88 26 146 12 28 -7 43
-13 34 -13 -10 -1 -18 -5 -18 -11 0 -13 1 -13 43 5 23 9 38 11 42 5 3 -6 -3
-10 -15 -10 -11 0 -43 -12 -71 -26 -28 -14 -49 -22 -46 -17 3 5 -3 9 -13 9
-13 0 -16 -4 -9 -12 6 -8 -5 -17 -38 -30 -27 -10 -50 -19 -53 -19 -3 0 -16 -8
-30 -17 -14 -9 -72 -38 -130 -63 -58 -26 -118 -53 -134 -61 -16 -8 -33 -14
-37 -14 -4 0 -52 -21 -106 -46 -54 -25 -107 -49 -118 -54 -11 -4 -65 -29 -120
-53 -55 -25 -122 -55 -150 -67 -27 -12 -63 -28 -80 -36 -25 -12 -36 -13 -72
-1 l-43 13 30 17 c30 18 41 12 18 -11 -7 -7 -9 -12 -5 -12 14 0 55 50 45 56
-7 4 -6 9 2 14 8 5 5 9 -9 13 -17 4 -19 2 -11 -13 12 -23 13 -30 1 -30 -5 0
-11 9 -14 21 -7 27 -17 24 -180 -58 -70 -35 -162 -77 -205 -94 -42 -17 -93
-41 -113 -54 -44 -28 -128 -58 -146 -51 -15 6 -18 36 -3 36 6 0 21 10 34 23
12 12 47 30 77 41 30 10 64 25 76 32 13 8 67 37 120 65 157 82 443 230 506
262 60 30 72 46 21 27 -23 -9 -26 -9 -17 1 6 6 27 12 45 13 29 1 158 59 158
71 0 6 -45 -12 -72 -29 -33 -20 -72 -31 -64 -17 4 6 2 11 -4 11 -6 0 -8 5 -5
10 4 6 10 8 15 5 5 -3 11 -1 15 5 4 6 10 8 15 5 10 -6 49 12 65 30 13 15 68
38 60 25 -3 -5 0 -10 7 -10 8 -1 6 -6 -6 -15 -11 -8 -16 -15 -10 -15 5 0 17 7
27 14 13 10 15 15 5 19 -8 3 -3 9 14 17 15 7 25 17 22 21 -3 5 3 6 12 2 13 -5
15 -3 9 7 -6 10 -4 12 8 7 10 -4 17 -1 17 5 0 6 3 8 7 5 3 -4 12 -2 20 4 10 9
17 8 30 -2 9 -8 14 -9 10 -2 -4 6 0 19 9 27 8 9 12 16 7 16 -11 0 20 20 32 20
6 0 3 -5 -5 -10 -24 -15 2 -11 30 5 14 8 37 14 51 15 32 0 121 44 111 55 -4 5
-1 5 5 1 16 -9 56 12 48 24 -3 6 1 7 10 4 8 -4 21 -2 28 4 6 5 95 52 197 103
101 52 189 98 195 102 5 4 66 36 135 71 69 34 161 82 205 106 44 23 154 81
245 129 91 47 188 98 215 113 28 14 113 59 189 98 77 40 156 81 175 92 173 97
513 268 534 268 11 0 34 -7 52 -16z m-7086 -230 c12 -19 16 -32 11 -29 -11 7
-43 65 -36 65 2 0 13 -16 25 -36z m72 -119 l10 -20 -16 20 c-9 11 -21 29 -26
40 l-10 20 16 -20 c9 -11 21 -29 26 -40z m1799 -99 c190 -35 360 -103 510
-201 90 -60 170 -127 170 -144 0 -15 -63 -71 -80 -71 -10 0 -31 11 -47 24 -34
28 -209 146 -217 146 -3 0 -34 13 -68 29 -104 49 -260 88 -405 102 -305 29
-618 -56 -863 -236 -112 -82 -115 -82 -156 -41 -19 19 -34 39 -34 46 0 31 178
159 300 216 30 14 73 34 95 45 67 32 295 90 390 99 115 11 308 4 405 -14z
m-1705 -52 c9 -15 12 -23 6 -20 -11 7 -35 46 -28 46 3 0 12 -12 22 -26z
m-2420 -64 c3 -5 3 -10 0 -10 -13 0 -65 34 -65 42 0 10 56 -18 65 -32z m2615
9 c0 -6 -4 -7 -10 -4 -5 3 -10 11 -10 16 0 6 5 7 10 4 6 -3 10 -11 10 -16z
m-2620 -69 c0 -5 -2 -10 -4 -10 -3 0 -8 5 -11 10 -3 6 -1 10 4 10 6 0 11 -4
11 -10z m-1319 -99 c96 -49 119 -67 74 -57 -38 8 -194 33 -257 41 -27 3 -48
10 -48 15 0 5 12 18 28 30 39 32 99 23 203 -29z m1860 -8 c13 -16 12 -17 -3
-4 -10 7 -18 15 -18 17 0 8 8 3 21 -13z m3535 -4 c165 -24 386 -127 509 -237
45 -40 43 -64 -7 -105 l-38 -30 -37 31 c-57 48 -169 122 -211 138 -20 8 -46
20 -57 26 -11 6 -36 15 -55 19 -19 4 -69 15 -110 24 -95 21 -259 21 -382 0
-95 -17 -242 -70 -290 -105 -15 -11 -31 -20 -35 -20 -4 0 -37 -23 -72 -50 -36
-28 -73 -50 -84 -50 -22 0 -77 52 -77 72 0 40 198 171 340 225 58 22 128 46
155 52 125 29 299 33 451 10z m-3393 -10 c18 -8 27 -19 24 -28 -3 -12 5 -16
36 -18 76 -3 127 -14 127 -28 0 -7 -7 -15 -15 -19 -8 -3 -15 -10 -15 -16 0 -6
7 -4 16 4 18 19 71 21 77 4 3 -10 7 -10 20 0 13 12 18 10 29 -7 9 -14 19 -19
35 -15 24 6 73 -36 73 -64 0 -8 6 -12 15 -8 25 9 85 -22 85 -44 0 -21 4 -24
53 -34 15 -4 27 -11 27 -18 0 -15 31 -37 53 -38 9 0 18 -3 18 -7 8 -52 6 -68
-9 -79 -9 -8 -12 -14 -6 -14 5 0 15 5 21 11 9 9 18 8 37 -5 30 -19 33 -31 10
-40 -39 -15 -104 0 -91 21 4 6 -5 15 -19 22 -35 15 -41 14 -18 -5 10 -8 -4 -3
-33 12 -29 15 -50 31 -47 35 3 5 -1 6 -9 4 -7 -3 -33 8 -56 26 -24 17 -56 36
-70 43 -40 17 -171 97 -177 108 -4 6 3 5 14 -1 31 -16 41 -13 12 4 -14 8 -19
14 -11 15 8 0 11 3 8 6 -4 4 -13 1 -21 -5 -12 -10 -28 -5 -88 30 -87 51 -146
96 -110 85 37 -12 25 4 -18 23 -22 10 -37 21 -32 26 4 5 1 5 -7 0 -11 -6 -9
-12 10 -26 30 -23 17 -25 -16 -3 -14 9 -22 20 -19 25 3 5 -2 6 -10 3 -10 -4
-16 -1 -16 9 0 26 63 30 113 6z m-927 -14 c-36 -19 -47 -19 -22 0 11 8 27 15
35 15 9 0 3 -7 -13 -15z m3040 -11 c-4 -9 -9 -15 -11 -12 -3 3 -3 13 1 22 4 9
9 15 11 12 3 -3 3 -13 -1 -22z m6496 -24 c21 -16 28 -33 36 -97 6 -43 12 -96
14 -118 3 -39 2 -40 -26 -37 -16 2 -47 10 -70 18 -51 19 -225 36 -280 28 -94
-13 -224 -67 -312 -130 -72 -50 -413 -388 -477 -471 -24 -32 -56 -82 -71 -110
-48 -96 -32 -256 34 -340 50 -64 232 -173 288 -173 11 0 22 -7 26 -15 3 -8 16
-19 28 -24 30 -11 109 -158 125 -231 6 -30 16 -73 22 -95 6 -22 11 -75 11
-118 0 -84 -15 -125 -65 -186 -15 -17 -23 -31 -18 -31 15 1 74 60 102 105 15
24 31 42 33 39 3 -3 8 2 12 11 4 11 2 14 -7 9 -6 -4 -3 2 8 13 l20 20 9 -25
c5 -15 4 -64 -3 -124 -28 -244 -8 -313 114 -405 16 -13 25 -23 19 -23 -16 0
-86 -49 -133 -92 l-40 -38 -78 34 c-43 19 -98 40 -123 47 -58 16 -63 21 -98
83 -21 35 -52 69 -102 106 -68 52 -71 57 -64 85 10 37 8 111 -4 234 -12 116
-20 124 -129 140 -61 8 -97 8 -163 -2 -47 -8 -94 -18 -104 -22 -19 -8 -19 -3
-13 186 4 107 12 223 18 259 15 89 14 246 -1 298 -12 38 -46 80 -92 114 -14
11 -19 43 -29 188 -19 274 -6 313 121 366 167 70 761 308 1220 490 149 59 202
66 242 34z m-9815 -33 c3 -4 -9 -5 -27 -2 -18 2 -35 6 -38 9 -3 3 9 4 27 2 17
-2 34 -6 38 -9z m54 -5 c-7 -2 -18 1 -23 6 -8 8 -4 9 13 5 13 -4 18 -8 10 -11z
m84 -39 c16 -13 17 -14 3 -9 -45 16 -51 16 -28 2 14 -8 37 -15 52 -16 15 0 70
-20 122 -45 53 -25 100 -45 106 -45 5 0 84 -36 175 -80 91 -44 168 -80 172
-80 3 0 27 -13 52 -29 25 -16 75 -38 111 -49 67 -21 153 -56 275 -112 39 -18
99 -45 135 -61 36 -17 92 -43 125 -59 33 -16 94 -44 135 -63 182 -82 239 -111
233 -120 -3 -5 4 -6 17 -2 15 5 20 4 16 -4 -4 -6 -2 -9 6 -6 7 3 30 -3 51 -14
22 -11 32 -21 25 -24 -7 -3 -2 -6 12 -6 14 -1 39 -9 55 -19 17 -9 57 -28 90
-40 105 -41 104 -41 58 -41 -27 -1 -45 -7 -51 -17 -5 -9 -13 -15 -18 -15 -5 1
-9 -12 -10 -28 -1 -15 -5 -34 -10 -42 -11 -18 -11 -19 -24 -179 -15 -178 -37
-344 -40 -300 -1 19 -4 57 -5 84 -1 26 -8 52 -15 56 -9 6 -10 40 -3 146 15
251 -11 359 -97 401 -25 12 -67 29 -95 39 -27 9 -59 23 -71 30 -11 8 -45 22
-75 33 -29 10 -90 36 -134 56 -44 20 -89 40 -100 45 -173 79 -302 130 -326
130 -44 0 -91 -51 -112 -120 -10 -30 -24 -131 -32 -225 -9 -93 -20 -206 -25
-250 -6 -44 -15 -132 -20 -195 -5 -63 -14 -162 -20 -220 -50 -500 -62 -656
-65 -795 l-3 -160 -54 -3 c-48 -3 -56 0 -66 20 -12 22 -12 22 -7 -4 3 -16 3
-28 0 -28 -3 0 -40 -7 -81 -16 -42 -8 -78 -13 -81 -10 -3 3 2 23 10 44 30 74
46 158 62 311 19 191 19 201 0 201 -17 0 -19 9 -5 30 7 11 10 11 10 2 0 -7 5
-10 10 -7 6 3 9 30 9 58 -1 29 -3 43 -6 32 -9 -36 -25 -43 -23 -10 3 45 1 52
-11 35 -8 -11 -9 4 -5 55 4 39 11 131 16 205 6 74 14 176 20 225 5 50 14 152
21 227 7 75 15 135 19 133 3 -2 7 29 8 68 3 92 14 129 22 72 l6 -40 12 53 c26
115 7 324 -38 418 -47 98 -64 112 -197 176 -67 32 -125 58 -128 58 -8 0 -135
61 -135 65 0 2 10 1 23 -2 21 -4 22 -4 3 11 -22 18 -51 22 -41 6 8 -13 3 -13
-33 5 -20 10 -29 21 -25 30 3 9 -2 18 -12 21 -13 5 -14 9 -3 15 19 12 30 11
53 -8z m-630 -13 c13 -6 15 -9 5 -9 -8 0 -22 4 -30 9 -18 12 -2 12 25 0z m160
-63 c22 -6 43 -15 46 -20 4 -5 15 -7 24 -3 9 3 53 -5 97 -19 84 -27 146 -31
217 -14 24 5 46 7 49 4 9 -9 -18 -77 -44 -111 -23 -32 -118 -74 -194 -88 -19
-3 -3 5 36 18 71 23 126 61 130 91 2 13 -2 12 -24 -4 -41 -29 -104 -57 -139
-64 -37 -7 -45 8 -10 19 49 15 166 77 161 85 -3 5 -24 9 -47 9 -105 0 -260 43
-362 101 -64 36 -72 47 -17 23 20 -9 55 -21 77 -27z m3735 33 c0 -5 -5 -10
-11 -10 -5 0 -7 5 -4 10 3 6 8 10 11 10 2 0 4 -4 4 -10z m40 -85 c0 -5 -5 -3
-10 5 -5 8 -10 20 -10 25 0 6 5 3 10 -5 5 -8 10 -19 10 -25z m1203 -55 c127
-43 287 -148 287 -188 0 -15 -68 -82 -83 -82 -5 0 -27 15 -50 34 -151 122
-327 166 -527 129 -91 -16 -224 -78 -288 -134 -31 -28 -34 -28 -62 -14 -37 19
-65 59 -53 78 9 16 78 76 108 94 146 91 268 123 450 119 105 -2 132 -7 218
-36z m-4503 -78 c0 -40 -6 -67 -21 -92 -44 -71 -84 -113 -130 -135 -27 -12
-55 -28 -64 -35 -8 -7 -15 -8 -15 -3 0 5 18 22 40 39 41 30 53 51 23 39 -10
-4 -56 -9 -103 -11 -103 -4 -89 0 50 16 91 11 110 17 143 42 41 33 48 49 17
41 -25 -7 -25 -6 1 52 11 25 18 49 16 52 -3 2 -8 -5 -12 -16 -3 -12 -11 -19
-16 -16 -5 3 -6 -1 -3 -9 3 -9 -3 -19 -16 -26 -26 -14 -36 -7 -17 12 8 7 20
30 27 49 13 35 56 73 72 63 5 -3 8 -31 8 -62z m5216 10 c-17 -16 -18 -16 -5 5
7 12 15 20 18 17 3 -2 -3 -12 -13 -22z m-1843 -12 c3 -11 2 -18 -3 -15 -4 3
-10 14 -13 25 -3 11 -2 18 3 15 4 -3 10 -14 13 -25z m4062 10 c-27 -12 -43
-12 -25 0 8 5 22 9 30 9 10 0 8 -3 -5 -9z m345 -20 c8 -5 11 -10 5 -10 -5 0
-17 5 -25 10 -8 5 -10 10 -5 10 6 0 17 -5 25 -10z m-7658 -59 c179 -70 202
-94 223 -227 3 -23 -5 -158 -19 -300 -14 -143 -30 -311 -36 -374 -5 -63 -14
-153 -19 -200 -6 -47 -15 -139 -20 -205 -6 -66 -17 -190 -26 -275 -8 -85 -19
-223 -25 -307 -12 -191 -44 -293 -105 -345 -35 -29 -195 -81 -335 -108 l-134
-27 -27 36 c-15 20 -43 51 -62 70 -25 24 -38 46 -42 75 -4 22 -18 86 -31 141
-46 186 -39 172 -97 201 -60 31 -178 81 -221 95 -64 19 -246 115 -246 128 0
25 54 101 72 101 9 0 68 -24 130 -54 190 -91 234 -99 286 -53 25 23 52 103 52
153 0 49 9 63 51 84 44 23 67 56 50 73 -18 18 -13 27 17 27 39 0 74 27 67 51
-4 11 -4 32 0 48 6 29 7 29 74 28 85 -2 101 9 101 72 0 48 7 66 78 186 63 108
63 115 3 159 -28 20 -55 36 -61 36 -5 0 -38 11 -72 24 -35 14 -124 48 -198 76
-74 28 -144 55 -155 60 -11 5 -42 18 -70 28 -70 25 -72 49 -8 90 26 17 70 40
98 52 38 16 46 23 35 30 -13 8 -12 10 3 10 9 0 17 5 17 10 0 6 -5 10 -11 10
-6 0 -3 7 5 16 9 8 16 20 16 26 0 6 16 26 36 44 28 27 32 34 17 35 -14 0 -13
2 6 10 19 8 21 12 11 24 -22 26 13 18 89 -21 59 -30 77 -35 109 -29 l39 6 6
-168 c3 -92 8 -177 13 -188 6 -17 3 -16 -22 6 -59 53 -85 59 -151 32 -54 -22
-55 -33 -3 -33 23 0 60 -9 82 -20 23 -11 49 -20 57 -20 10 0 6 -9 -14 -30 -40
-41 -24 -49 23 -12 l39 31 -5 195 -5 194 71 7 c39 4 84 4 101 0 43 -9 39 3 -6
22 l-38 15 30 24 c20 16 25 24 15 25 -22 2 -23 2 -50 -6 -23 -7 -23 -6 9 31
19 21 45 62 59 92 13 30 29 51 36 48 6 -2 46 -18 88 -35z m7738 29 c0 -13 -11
-13 -30 0 -12 8 -11 10 8 10 12 0 22 -4 22 -10z m-607 -25 c-7 -21 -12 -19
-10 4 0 11 5 18 9 15 4 -3 5 -11 1 -19z m-5415 -35 c15 0 15 -2 2 -11 -12 -9
-10 -10 8 -6 13 3 21 3 18 0 -3 -4 -1 -12 6 -20 9 -12 7 -14 -13 -10 -13 2
-18 2 -11 0 6 -3 12 -9 12 -15 0 -5 7 -8 14 -5 10 4 13 1 9 -8 -4 -13 -9 -12
-32 4 -14 10 -35 23 -46 30 -15 9 -16 11 -2 7 9 -3 17 -2 17 3 0 16 -13 20
-34 10 -19 -9 -19 -9 -4 4 10 8 14 18 10 22 -4 5 1 5 11 2 10 -4 26 -7 35 -7z
m3249 -42 c-3 -8 -6 -5 -6 6 -1 11 2 17 5 13 3 -3 4 -12 1 -19z m2809 7 c-8
-8 -27 -16 -43 -16 -27 -2 -27 -2 -3 -6 14 -3 28 -10 33 -17 4 -7 9 -4 13 11
3 12 16 23 30 26 30 5 32 -8 2 -18 -22 -6 -21 -7 9 -16 31 -9 31 -10 17 -37
-7 -15 -14 -34 -14 -42 0 -9 -4 -20 -10 -26 -5 -5 -11 -70 -12 -144 l-3 -134
-70 -11 c-38 -7 -84 -15 -101 -19 l-31 -7 -6 101 c-5 91 -8 105 -37 150 -41
64 -65 71 -139 36 -88 -41 -213 -86 -222 -80 -5 3 -9 1 -9 -5 0 -5 -24 -18
-52 -29 -29 -11 -61 -23 -71 -27 -12 -5 -16 -3 -12 6 6 16 93 54 102 45 3 -3
13 3 20 14 10 15 21 19 35 14 11 -3 18 -2 15 3 -3 5 9 16 26 25 50 24 140 60
165 65 12 3 22 9 22 13 0 11 80 41 91 35 5 -4 9 -1 9 4 0 6 6 11 13 11 6 0 34
11 61 25 36 17 54 21 67 14 12 -6 20 -5 25 3 4 6 3 8 -4 4 -6 -3 -13 -3 -16 2
-3 5 0 9 7 10 44 6 77 16 77 23 0 5 7 9 16 9 14 0 14 -2 0 -15z m-4476 -19 c0
-3 -4 -8 -10 -11 -5 -3 -10 -1 -10 4 0 6 5 11 10 11 6 0 10 -2 10 -4z m1641
-19 c-10 -9 -11 -8 -5 6 3 10 9 15 12 12 3 -3 0 -11 -7 -18z m-5373 6 c-10 -2
-26 -2 -35 0 -10 3 -2 5 17 5 19 0 27 -2 18 -5z m5405 -8 c-3 -9 -8 -14 -10
-11 -3 3 -2 9 2 15 9 16 15 13 8 -4z m-772 -36 c30 -15 46 -32 60 -64 42 -96
-25 -195 -133 -195 -65 0 -138 74 -138 141 0 37 32 89 69 115 44 30 89 31 142
3z m-2335 -24 c10 -8 14 -15 8 -15 -5 0 -19 7 -30 15 -10 8 -14 15 -8 15 5 0
19 -7 30 -15z m3174 -34 c-6 -12 -15 -21 -21 -21 -5 0 -2 15 7 33 10 17 19 27
21 20 2 -7 -1 -21 -7 -32z m-93 6 c-1 -5 -6 -8 -10 -8 -4 1 -14 1 -23 1 -8 0
-13 4 -9 9 7 12 46 10 42 -2z m-1837 -62 c0 -3 -11 7 -25 23 -14 17 -25 33
-25 37 0 3 11 -7 25 -23 14 -17 25 -33 25 -37z m163 52 c3 -8 -1 -14 -9 -14
-8 0 -14 6 -14 14 0 7 4 13 9 13 5 0 11 -6 14 -13z m3355 -56 c-7 -11 -16 -17
-21 -14 -4 3 0 11 10 19 24 18 25 17 11 -5z m2025 -29 c-23 -3 -31 -26 -14
-36 5 -3 7 -15 4 -25 -3 -10 1 -30 8 -42 12 -24 12 -24 -10 -5 -26 24 -27 11
-1 -48 21 -51 19 -59 -6 -20 -20 29 -28 132 -14 168 7 19 14 23 32 18 l23 -7
-22 -3z m-7823 -29 c30 -13 98 -40 150 -60 52 -19 202 -78 332 -129 131 -52
242 -94 248 -94 19 0 32 -85 27 -175 -8 -113 -34 -408 -77 -850 -17 -170 -12
-160 -78 -175 -31 -7 -68 -18 -82 -25 -14 -7 -68 -15 -121 -19 -263 -17 -482
-84 -621 -189 -60 -46 -68 -41 -68 45 0 109 97 1216 144 1641 8 74 34 80 146
30z m6729 -60 c5 -21 12 -64 15 -96 7 -66 21 -54 -134 -108 -208 -73 -460
-292 -460 -401 0 -16 12 -41 30 -61 26 -30 28 -36 15 -47 -21 -18 -19 -35 3
-19 15 12 15 11 -1 -8 -11 -12 -25 -19 -33 -16 -8 3 -21 -9 -34 -29 -38 -63
-22 -71 64 -34 l39 17 -7 -32 c-3 -18 -14 -42 -24 -52 -16 -19 -16 -20 10 -13
21 5 33 1 48 -14 11 -11 33 -20 48 -20 41 0 98 -67 105 -125 9 -62 55 -170 94
-221 18 -24 33 -46 33 -49 0 -2 -32 -21 -70 -41 -78 -40 -93 -59 -88 -107 3
-37 12 -36 -137 -11 -55 9 -111 17 -124 17 -16 -1 -20 2 -11 7 16 10 -77 40
-122 40 -16 0 -30 6 -32 13 -2 6 -16 149 -30 317 -33 367 -42 470 -56 618 -10
108 -5 163 18 200 7 11 186 82 542 214 74 27 162 61 195 74 83 32 92 31 104
-13z m1031 14 c0 -21 -21 -43 -86 -90 -65 -47 -103 -91 -135 -154 -18 -35 -19
-36 -19 -10 0 75 77 199 150 241 49 28 90 34 90 13z m-6600 -7 c8 -5 11 -10 5
-10 -5 0 -17 5 -25 10 -8 5 -10 10 -5 10 6 0 17 -5 25 -10z m5019 -24 c-14 -7
-48 -21 -75 -32 -27 -10 -60 -24 -74 -31 -14 -7 -33 -13 -42 -13 -9 0 -20 -4
-23 -10 -3 -5 -11 -10 -16 -10 -24 0 5 19 59 39 32 12 81 33 108 46 53 26 112
37 63 11z m-449 -44 c0 -11 -48 -37 -56 -30 -3 4 4 9 15 13 12 3 21 11 21 16
0 5 5 9 10 9 6 0 10 -4 10 -8z m-360 -52 c-8 -5 -19 -10 -25 -10 -5 0 -3 5 5
10 8 5 20 10 25 10 6 0 3 -5 -5 -10z m349 -29 c7 -5 9 -11 5 -14 -5 -3 -15 1
-22 9 -14 16 -5 18 17 5z m2136 -99 c51 -61 159 -111 239 -112 l31 -1 -30 -25
c-16 -13 -49 -37 -72 -53 -41 -27 -46 -41 -16 -41 8 0 35 16 61 36 26 19 59
38 75 41 15 3 30 10 33 14 3 5 42 9 88 9 45 0 108 5 140 11 32 6 60 9 62 7 3
-4 -190 -103 -271 -138 -46 -21 -120 -71 -138 -95 -4 -6 13 -28 40 -52 71 -63
127 -60 201 11 18 17 36 30 40 29 12 -3 2 30 -23 74 l-23 42 21 7 c12 3 31 14
42 24 30 25 170 100 189 100 9 0 16 -6 16 -12 0 -23 57 -132 89 -172 25 -32
31 -48 31 -88 0 -27 14 -118 31 -201 17 -84 33 -186 36 -229 l6 -76 -54 -57
c-72 -77 -150 -116 -190 -95 -21 12 -91 139 -83 152 3 4 -7 8 -22 8 -21 0 -25
4 -21 20 6 22 -8 28 -16 8 -3 -9 -10 -8 -26 6 -11 11 -21 22 -21 25 0 7 58 41
71 41 20 0 7 -20 -17 -26 -18 -5 -22 -10 -15 -17 15 -15 51 7 79 50 l23 35
-36 -6 c-20 -4 -51 -18 -70 -30 -28 -19 -43 -23 -82 -19 -26 3 -53 11 -59 19
-6 8 -13 11 -16 8 -4 -3 -9 0 -14 7 -4 8 -3 10 4 5 20 -12 13 13 -8 34 -13 13
-33 20 -59 20 -22 0 -43 6 -48 13 -4 6 -8 53 -8 102 -1 115 -14 204 -33 225
-12 15 -18 15 -50 4 -21 -7 -42 -13 -48 -14 -13 0 -105 201 -128 279 -9 30
-16 89 -16 130 l0 76 19 -40 c10 -22 31 -55 46 -73z m-2210 78 c-6 -10 -45 -1
-45 10 0 4 11 5 25 2 14 -2 23 -8 20 -12z m1285 10 c-10 -6 -11 -10 -2 -10 6
0 12 -7 12 -16 0 -11 -6 -15 -20 -11 -11 3 -20 1 -20 -4 0 -12 37 -12 44 0 5
8 86 21 86 13 0 -2 -5 -13 -12 -25 -10 -20 -10 -21 5 -8 30 24 18 7 -20 -29
-20 -19 -33 -30 -30 -23 4 6 1 13 -5 16 -7 2 -9 8 -5 13 4 5 12 2 17 -6 6 -8
10 -10 10 -4 0 15 -29 39 -37 30 -3 -3 -8 -18 -9 -33 -2 -21 -1 -24 6 -13 8
12 10 9 10 -12 0 -19 -9 -33 -32 -49 -18 -13 -35 -27 -36 -31 -2 -5 -8 -5 -13
-2 -6 4 -5 11 3 17 7 7 11 11 9 10 -2 -2 -10 2 -17 8 -18 15 -27 -6 -14 -31 6
-11 7 -21 3 -21 -35 -5 -69 -2 -76 6 -5 6 -7 3 -3 -7 3 -10 0 -18 -6 -18 -6 0
-8 -3 -5 -6 4 -4 13 -1 22 6 9 7 19 10 23 6 7 -8 -36 -45 -54 -46 -6 0 -19 -9
-30 -21 -13 -14 -25 -18 -44 -14 -15 3 -20 2 -13 -3 9 -5 -7 -18 -50 -39 -53
-26 -96 -42 -257 -91 -14 -5 -36 -5 -50 -1 l-25 7 28 1 c15 1 41 8 58 17 16 8
40 12 52 9 19 -5 20 -4 5 5 -13 8 -29 7 -63 -5 -54 -18 -58 -18 -50 -5 3 6 17
10 30 10 19 0 23 4 18 16 -5 14 -2 16 19 11 15 -4 33 -10 42 -13 9 -3 16 -1
16 5 0 6 8 11 18 11 13 0 14 -2 3 -9 -25 -16 4 -18 39 -3 19 9 40 16 45 18 6
1 26 9 45 18 25 11 29 15 15 16 -16 0 -17 2 -5 10 9 6 17 5 22 -3 4 -6 10 -8
14 -4 11 10 -27 36 -51 36 -16 -1 -15 -2 5 -9 l25 -8 -28 -1 c-25 -1 -57 18
-57 33 0 8 61 66 71 66 5 0 9 7 9 15 0 11 11 15 40 15 22 0 40 5 40 10 0 6 16
10 35 10 26 0 43 7 60 25 14 16 25 21 27 14 2 -7 4 6 4 28 -1 23 -3 40 -6 38
-3 -2 -12 1 -20 6 -11 7 -1 9 32 4 25 -3 49 -2 51 2 3 5 -21 9 -54 8 -35 0
-58 4 -55 10 1 6 23 9 47 8 24 -1 35 1 24 4 -11 3 -24 9 -30 15 -7 6 0 7 19 2
16 -4 27 -3 24 2 -4 5 15 10 41 12 33 1 42 -1 31 -8z m119 -29 c-1 -13 -2 -13
-6 2 -2 9 -9 17 -14 17 -5 0 -9 5 -9 11 0 8 5 8 15 -1 8 -7 14 -20 14 -29z
m-4059 -36 c0 -21 -30 -65 -44 -65 -8 0 -8 94 1 116 6 15 8 15 25 -6 10 -12
18 -32 18 -45z m2690 50 c-7 -9 -15 -13 -17 -11 -7 7 7 26 19 26 6 0 6 -6 -2
-15z m132 -18 c-23 -24 -30 -39 -27 -57 5 -21 4 -21 -6 4 -9 21 -14 25 -20 15
-5 -8 -9 -18 -9 -24 0 -5 5 -3 10 5 9 13 10 13 10 0 0 -19 -24 -87 -33 -97 -4
-4 -6 4 -5 18 2 13 6 26 10 29 4 3 3 12 -2 20 -7 11 -11 11 -24 1 -20 -17 -20
-2 -1 23 20 26 19 36 -2 36 -17 1 100 57 121 59 6 1 -4 -14 -22 -32z m2866
-161 c6 -22 25 -60 42 -84 17 -25 32 -53 33 -63 1 -10 9 -20 19 -22 18 -5 25
-27 9 -27 -18 0 -81 75 -113 135 -29 53 -33 69 -33 140 0 117 17 143 26 40 4
-44 12 -98 17 -119z m-1921 154 c-3 -11 0 -20 6 -20 7 0 3 -6 -7 -12 -15 -8
-21 -8 -24 0 -2 7 -9 9 -14 6 -7 -4 -8 -2 -4 5 4 6 12 9 17 6 5 -4 9 -2 9 4 0
5 -3 11 -7 14 -5 2 -2 2 5 1 6 -2 12 1 12 6 0 6 3 10 6 10 4 0 4 -9 1 -20z
m922 -17 c-12 -52 -11 -176 1 -209 18 -45 1 -40 -19 7 -39 90 -37 170 7 222
21 23 21 22 11 -20z m-4345 11 c3 -8 2 -12 -4 -9 -6 3 -10 10 -10 16 0 14 7
11 14 -7z m-47 -16 c-3 -8 -6 -5 -6 6 -1 11 2 17 5 13 3 -3 4 -12 1 -19z
m-2141 -29 c9 -15 -23 -10 -35 5 -10 12 -8 13 9 9 11 -3 23 -9 26 -14z m5469
11 c3 -6 -1 -7 -9 -4 -18 7 -21 14 -7 14 6 0 13 -4 16 -10z m1393 -20 c3 0 3
-3 0 -6 -7 -6 -78 22 -78 31 0 3 16 -2 36 -10 20 -8 39 -15 42 -15z m-9485
-41 c111 -39 118 -43 115 -67 -2 -14 3 -27 10 -29 7 -3 12 5 12 21 0 28 1 29
25 20 14 -6 14 -9 2 -23 -8 -9 -20 -43 -27 -76 -7 -33 -15 -66 -17 -73 -3 -7
0 -10 8 -7 16 5 41 -12 56 -39 9 -17 11 -16 17 8 5 21 1 34 -19 57 -26 32 -34
79 -13 79 6 0 22 -10 35 -22 l23 -22 -3 22 c-2 12 -12 28 -22 36 -17 12 -15
14 19 20 45 9 76 0 76 -20 0 -16 -33 -76 -87 -159 -18 -27 -33 -61 -33 -75 0
-22 7 -28 47 -39 41 -13 47 -12 58 2 9 12 14 14 23 5 17 -17 15 -64 -4 -82
-20 -20 -27 -20 -73 3 -21 11 -47 17 -59 14 -24 -6 -92 14 -92 28 0 5 9 18 21
30 23 23 18 39 -6 19 -51 -43 -37 -90 26 -90 35 0 40 -2 33 -17 -4 -10 -9 -38
-12 -63 -5 -51 -14 -60 -58 -60 -16 0 -39 -6 -49 -14 -18 -13 -18 -14 3 -25
31 -17 27 -39 -10 -54 -53 -23 -69 -48 -79 -128 -5 -39 -17 -86 -27 -103 -25
-43 -86 -47 -174 -11 -95 40 -251 116 -271 133 -14 12 -20 13 -30 3 -9 -10 -9
-12 2 -9 23 5 20 -30 -6 -69 -15 -21 -35 -57 -45 -80 -21 -48 -19 -48 -113 3
-33 18 -85 42 -115 54 -30 12 -149 68 -265 125 -116 57 -222 108 -237 114 -35
13 -35 22 1 85 36 64 138 292 146 328 7 29 35 60 35 39 0 -20 18 -12 26 12 l8
22 7 -25 7 -25 7 23 c9 27 25 29 25 2 0 -28 20 -25 21 3 0 13 2 16 6 7 2 -8 7
-22 10 -30 4 -13 7 -12 18 3 10 13 14 15 18 5 2 -8 10 -1 18 17 8 17 26 43 40
59 l26 28 23 -66 c20 -54 35 -78 86 -127 77 -73 150 -108 242 -116 135 -11
220 34 302 159 62 97 81 148 87 239 l6 77 26 -9 c14 -5 79 -27 144 -50z m7137
41 c0 -5 -4 -10 -9 -10 -6 0 -13 5 -16 10 -3 6 1 10 9 10 9 0 16 -4 16 -10z
m946 -6 c18 -15 18 -15 -3 -5 -12 6 -30 11 -40 10 -12 0 -8 -4 11 -11 21 -8
25 -13 15 -19 -8 -5 -21 -8 -29 -8 -10 0 -8 3 5 9 19 8 19 9 -2 9 -12 1 -25
-3 -28 -9 -3 -5 -10 -10 -16 -10 -5 0 -9 5 -9 10 0 6 7 10 16 10 8 0 13 4 10
9 -14 22 43 26 70 5z m94 6 c0 -5 -2 -10 -4 -10 -3 0 -8 5 -11 10 -3 6 -1 10
4 10 6 0 11 -4 11 -10z m1308 -41 c29 -12 51 -23 49 -25 -5 -6 -90 27 -111 43
-23 17 -15 15 62 -18z m-2239 -134 c-3 -82 -2 -161 3 -174 5 -13 11 -72 14
-130 5 -112 17 -263 36 -449 9 -87 9 -115 -1 -125 -9 -9 -14 -9 -21 3 -6 8 -8
21 -5 29 3 7 0 20 -6 27 -6 8 -14 40 -18 72 l-6 57 -47 3 c-27 2 -48 8 -48 14
0 6 10 26 21 45 27 43 23 83 -18 179 -16 38 -38 92 -49 119 -15 37 -29 55 -55
69 -36 19 -62 68 -98 177 -22 71 -21 72 112 120 54 19 83 26 87 19 4 -6 12
-77 19 -158 6 -81 16 -189 22 -241 6 -51 8 -105 5 -120 -5 -19 -4 -22 3 -11 7
10 10 -5 11 -50 0 -36 5 -83 10 -105 11 -46 9 -16 -11 236 -8 99 -9 156 -2
175 12 35 6 64 -9 43 -8 -11 -9 -10 -4 3 3 9 1 43 -4 75 -15 94 -19 182 -9
189 5 3 18 -5 29 -18 14 -16 19 -19 20 -8 0 18 21 93 24 88 1 -1 -1 -70 -5
-153z m-4529 135 c13 -9 13 -10 0 -10 -8 0 -22 5 -30 10 -13 9 -13 10 0 10 8
0 22 -5 30 -10z m5248 -2 c-2 -6 -15 -18 -29 -27 -23 -15 -23 -15 -10 2 15 19
1 23 -17 5 -10 -10 -8 -16 9 -29 17 -12 19 -18 9 -24 -9 -5 -11 -4 -6 3 10 16
-7 15 -23 0 -11 -10 -13 -10 -7 0 9 14 -10 17 -19 2 -4 -6 -11 -7 -17 -4 -7 5
-9 -3 -5 -22 5 -26 4 -27 -8 -10 -8 10 -20 15 -27 12 -7 -4 0 3 16 16 16 13
47 38 68 56 40 32 73 43 66 20z m200 5 c-10 -2 -28 -2 -40 0 -13 2 -5 4 17 4
22 1 32 -1 23 -4z m344 -15 c-7 -7 -12 -8 -12 -2 0 14 12 26 19 19 2 -3 -1
-11 -7 -17z m817 -238 c29 -39 51 -76 49 -82 -4 -12 -110 127 -137 181 -19 36
-51 135 -51 155 0 6 20 -33 44 -86 24 -53 67 -129 95 -168z m-2152 228 c1 -10
-2 -18 -8 -18 -5 0 -9 2 -9 4 0 2 -2 11 -5 19 -3 7 0 14 8 14 7 0 14 -9 14
-19z m1248 -27 c-32 -34 -144 -113 -225 -158 -74 -42 -186 -87 -295 -119 -103
-30 -133 -39 -158 -49 -10 -4 -17 -4 -16 1 4 21 -2 24 -17 9 -15 -15 -18 -15
-34 0 -10 9 -17 27 -17 41 0 17 2 22 7 13 5 -6 6 -17 4 -24 -3 -8 5 -10 26 -7
16 2 30 9 30 14 0 5 5 6 11 2 8 -5 8 -9 -1 -14 -9 -5 -9 -9 -1 -14 19 -12 259
67 401 131 79 36 252 147 284 182 11 12 21 21 24 21 3 0 -7 -13 -23 -29z
m-5862 -16 c152 -58 155 -60 162 -97 3 -18 -3 -125 -13 -238 -16 -184 -21
-209 -42 -237 -19 -26 -29 -31 -57 -29 -24 2 -32 -1 -29 -11 3 -7 -3 -17 -12
-23 -15 -8 -15 -11 -2 -20 13 -8 12 -10 -5 -10 -14 0 -16 -3 -7 -12 7 -7 8
-17 1 -29 -8 -15 -6 -17 8 -12 15 5 16 3 6 -7 -10 -11 -18 -11 -40 -1 -26 12
-27 12 -11 -6 15 -17 14 -21 -26 -73 -23 -30 -51 -56 -62 -58 -10 -2 -30 -16
-44 -32 l-25 -29 7 102 c4 56 12 174 18 262 5 88 15 196 20 240 6 44 14 137
19 206 8 126 13 149 32 149 5 0 51 -16 102 -35z m5888 2 l-23 -22 17 28 c10
15 20 25 23 22 3 -3 -5 -16 -17 -28z m1132 26 c-7 -2 -19 -2 -25 0 -7 3 -2 5
12 5 14 0 19 -2 13 -5z m-6352 -23 c10 -6 19 -20 19 -30 0 -25 -36 -27 -65 -4
-20 15 -20 15 -1 30 24 17 22 17 47 4z m3236 -25 c2 -6 -2 -19 -9 -28 -10 -13
-21 -16 -46 -11 -35 7 -42 27 -14 43 21 13 64 10 69 -4z m345 6 c-9 -5 -1 -10
26 -14 46 -8 103 -54 82 -67 -8 -5 -24 -2 -39 8 -20 13 -47 17 -123 15 -87 -1
-105 -5 -168 -34 -38 -17 -75 -38 -81 -45 -6 -8 -15 -12 -19 -9 -14 9 -98 -94
-108 -132 l-10 -38 -1 50 c-1 60 19 98 80 147 72 58 146 88 280 112 95 17 97
17 81 7z m1024 -60 c-4 -6 -13 -11 -19 -10 -9 0 -9 2 0 5 7 3 9 13 6 22 -5 13
-3 14 7 5 7 -6 9 -16 6 -22z m-7428 -2 c7 -36 -132 -239 -164 -239 -8 0 -14 2
-14 5 0 10 87 169 127 233 16 25 46 26 51 1z m7382 11 c11 -7 11 -10 2 -10 -8
0 -10 -5 -6 -12 4 -7 4 -10 -1 -6 -4 4 -15 2 -24 -4 -9 -7 -7 -2 4 11 18 22
18 24 2 18 -11 -4 -16 -3 -12 3 8 12 16 12 35 0z m620 -7 c0 -3 -9 -3 -20 0
-12 3 -24 -1 -30 -11 -5 -10 -10 -12 -10 -6 0 18 21 32 41 27 10 -3 19 -8 19
-10z m-1516 -51 c22 -15 41 -33 42 -40 1 -7 0 -8 -3 -2 -3 6 -23 20 -46 32
-36 18 -53 20 -129 15 -76 -5 -98 -11 -180 -50 -106 -51 -148 -90 -158 -144
-5 -29 -9 -34 -15 -20 -11 26 14 76 60 122 111 110 329 154 429 87z m1478 16
c-6 -7 -24 -21 -40 -30 -22 -14 -29 -14 -29 -4 0 8 7 12 15 8 11 -4 14 -1 9
11 -4 11 -2 14 7 11 8 -3 20 1 27 9 17 18 26 13 11 -5z m-628 -4 c3 -8 2 -12
-4 -9 -6 3 -10 10 -10 16 0 14 7 11 14 -7z m-4770 -44 c36 -16 66 -32 66 -34
0 -3 -29 -19 -65 -35 -36 -16 -79 -45 -96 -63 -21 -22 -27 -26 -20 -11 6 12
11 42 11 66 0 63 10 107 25 107 7 0 43 -13 79 -30z m4792 7 c0 -14 -7 -23 -17
-23 -15 0 -15 2 0 23 20 28 19 28 17 0z m289 3 c-28 -12 -37 -12 -30 0 3 6 16
10 28 9 21 0 21 -1 2 -9z m-3240 -14 c138 0 448 3 690 6 508 6 608 1 647 -27
48 -35 42 -44 -27 -43 -46 0 -75 -6 -108 -22 -35 -18 -48 -20 -65 -11 -29 15
-76 14 -119 -4 -19 -8 -43 -15 -53 -15 -9 0 -25 -9 -36 -21 -10 -12 -39 -33
-64 -47 -53 -31 -62 -42 -48 -59 7 -8 7 -13 0 -13 -5 0 -12 -10 -16 -22 -5
-18 1 -29 24 -48 16 -14 36 -41 45 -60 l16 -35 -6 41 c-6 36 -3 43 19 58 15 9
37 21 51 26 22 8 26 6 38 -23 17 -41 34 -54 72 -59 24 -2 34 -11 51 -48 20
-41 20 -48 7 -73 -17 -34 -12 -45 10 -23 14 14 16 13 22 -14 4 -16 11 -32 15
-35 5 -3 3 12 -5 35 -8 22 -12 47 -8 55 3 9 -6 32 -20 53 -29 42 -45 92 -29
92 6 0 14 -4 17 -10 10 -17 25 -11 18 8 -5 13 -2 13 15 -5 26 -27 78 -39 97
-23 25 21 67 -9 86 -60 l17 -45 17 39 c9 21 14 41 11 43 -3 3 -1 14 5 25 8 15
13 17 24 8 8 -7 20 -10 27 -7 8 4 7 6 -4 6 -25 1 -23 21 2 21 25 0 32 -28 27
-100 -4 -46 -3 -51 9 -36 12 17 14 17 36 2 34 -24 45 -20 56 22 l10 37 1 -40
c1 -22 4 -49 7 -60 4 -18 -5 -24 -66 -45 -40 -14 -74 -28 -77 -32 -2 -5 -9 -8
-15 -8 -6 0 -9 22 -6 55 1 30 0 55 -4 55 -4 0 -8 -26 -10 -57 -3 -54 -5 -58
-48 -90 -25 -18 -57 -38 -72 -44 -16 -6 -25 -15 -22 -21 4 -6 -3 -5 -15 2 -12
6 -19 14 -17 19 3 4 -1 19 -9 34 -13 25 -4 40 10 17 10 -17 35 -11 34 8 0 10
-3 12 -6 5 -2 -7 -9 -13 -14 -13 -6 0 -7 5 -3 11 5 8 -3 10 -24 7 -17 -2 -33
0 -35 5 -1 5 -15 -7 -30 -27 -42 -55 -61 -61 -102 -36 -19 12 -35 26 -35 31 0
13 18 11 22 -2 2 -7 10 -4 18 7 13 16 13 17 -2 12 -17 -7 -33 16 -22 33 3 5 1
9 -5 9 -5 0 -15 -8 -21 -17 -9 -15 -11 -14 -7 10 5 29 5 29 -40 10 -8 -3 -13
10 -16 39 l-4 43 -1 -43 c-2 -36 1 -44 21 -51 13 -5 32 -26 41 -46 10 -20 29
-40 42 -46 44 -16 17 -26 -89 -33 -109 -7 -237 -30 -246 -44 -3 -4 -26 -14
-51 -22 -25 -7 -47 -15 -49 -17 -2 -1 17 -27 43 -58 26 -30 46 -60 44 -67 -4
-11 -98 115 -98 131 0 4 -11 20 -25 35 -26 28 -59 33 -99 15 l-25 -12 28 -36
c16 -20 31 -46 35 -57 10 -32 -23 -36 -196 -28 l-149 7 -13 31 c-24 57 -35 61
-203 65 -172 4 -190 -2 -220 -64 l-17 -35 -182 0 c-182 0 -183 0 -213 26 -17
14 -31 31 -31 36 0 6 25 48 56 95 30 46 54 88 52 95 -5 13 -106 41 -119 32 -5
-3 -24 -29 -43 -57 -18 -29 -47 -64 -63 -80 l-30 -28 -99 15 c-54 8 -129 17
-166 21 -49 5 -68 11 -68 21 0 9 11 14 34 14 47 0 60 20 52 79 -6 49 -5 51 35
90 40 38 41 41 37 93 -6 78 -55 146 -138 195 -62 36 -69 38 -152 37 l-88 0 0
35 c0 50 29 102 70 126 52 29 155 34 655 26 242 -3 553 -6 690 -5z m3461 -2
c10 -8 14 -13 8 -10 -6 3 -34 0 -63 -8 -28 -7 -51 -12 -51 -11 0 6 66 45 76
45 5 0 19 -7 30 -16z m1479 0 c9 -9 23 -27 31 -40 15 -21 13 -24 -23 -58 -41
-38 -94 -59 -122 -48 -25 10 -81 59 -81 71 0 17 123 91 152 91 14 0 34 -7 43
-16z m-2075 -38 c0 -2 -7 -9 -15 -16 -13 -11 -14 -10 -9 4 5 14 24 23 24 12z
m13 -21 c-3 -9 -8 -14 -10 -11 -3 3 -2 9 2 15 9 16 15 13 8 -4z m-4525 -2
c-16 -2 -40 -2 -55 0 -16 2 -3 4 27 4 30 0 43 -2 28 -4z m79 -18 c6 0 23 -10
37 -22 14 -13 29 -23 34 -23 28 -2 102 -117 102 -159 0 -23 -30 -50 -48 -44
-12 5 -14 2 -9 -11 4 -10 3 -15 -3 -11 -5 3 -20 1 -32 -6 l-23 -11 22 20 c46
45 97 125 60 93 -8 -6 -17 -7 -21 -3 -4 4 -6 3 -4 -3 5 -15 -5 -19 -30 -11
-13 4 -21 13 -19 19 2 7 -5 17 -17 24 -12 7 -15 12 -8 13 19 0 14 27 -5 27
-60 -1 -105 4 -100 10 4 3 28 6 54 6 27 -1 39 2 28 4 l-20 6 20 7 c19 8 19 8
-5 18 l-25 11 28 0 c26 1 27 2 12 17 -9 9 -19 14 -22 11 -8 -9 -43 11 -43 24
0 6 6 7 13 2 6 -4 17 -8 24 -8z m4843 5 c-14 -4 -19 -8 -11 -9 8 -1 12 -3 9
-6 -3 -3 -13 -2 -22 1 -14 5 -15 9 -4 15 7 5 22 8 33 8 16 -1 16 -2 -5 -9z
m47 -16 c-3 -3 -12 -4 -19 -1 -8 3 -5 6 6 6 11 1 17 -2 13 -5z m-337 -8 c0 -2
-9 -6 -20 -9 -11 -3 -18 -1 -14 4 5 9 34 13 34 5z m1698 -14 c2 -8 -4 -11 -19
-9 -13 2 -25 9 -27 16 -3 8 4 12 19 9 12 -1 24 -9 27 -16z m-1488 -2 c0 -5 7
-7 15 -4 8 4 15 2 15 -3 0 -6 -17 -15 -37 -20 -41 -12 -143 -14 -143 -3 0 9
70 33 77 26 3 -3 -5 -10 -18 -15 -15 -6 -18 -10 -8 -10 9 -1 22 5 29 13 10 13
21 17 63 25 4 0 7 -3 7 -9z m-4787 -7 c-7 -2 -19 -2 -25 0 -7 3 -2 5 12 5 14
0 19 -2 13 -5z m3696 -83 c66 -99 76 -136 75 -260 0 -60 -6 -87 -27 -134 l-27
-59 -38 7 c-20 3 -48 6 -62 6 -23 1 -21 3 13 21 51 27 40 35 -19 15 -26 -9
-56 -16 -66 -16 -10 0 -18 -7 -18 -15 0 -20 -26 -19 -78 5 -56 26 -74 47 -122
149 -47 99 -50 138 -15 171 34 32 105 142 105 163 0 9 5 17 10 17 6 0 10 -13
10 -29 0 -38 32 -61 83 -61 54 0 73 13 92 65 10 25 19 45 21 45 2 0 30 -41 63
-90z m1341 45 c0 -8 10 -17 23 -21 l22 -8 -25 -6 c-25 -7 -24 -7 12 -25 31
-15 37 -22 32 -41 -5 -19 0 -26 28 -40 23 -10 39 -28 47 -49 18 -52 36 -61 75
-43 22 11 40 31 54 62 28 59 63 83 98 68 62 -29 56 -138 -12 -229 -25 -33 -54
-44 -54 -20 -1 33 -29 -44 -30 -83 -2 -65 -18 -99 -19 -40 -2 77 -24 200 -38
200 -22 0 -23 -17 -3 -63 12 -28 23 -79 26 -134 l7 -89 -47 -45 c-66 -61 -218
-156 -266 -164 -58 -10 -90 10 -110 68 -10 27 -28 59 -41 71 -13 11 -32 31
-42 42 -17 21 -17 21 8 16 18 -3 24 -9 21 -19 -3 -8 -2 -12 3 -9 5 3 12 -1 15
-9 4 -13 19 -15 78 -10 40 3 77 10 83 16 7 9 -12 10 -72 6 -93 -6 -105 4 -57
48 26 24 27 56 2 54 -10 0 -10 -2 0 -6 34 -14 -22 -43 -84 -43 -38 0 -52 26
-33 62 6 12 12 61 13 110 1 78 -1 90 -22 110 -12 13 -41 28 -65 34 -41 11 -41
12 -17 22 14 5 40 27 58 47 17 20 32 34 32 30 0 -4 16 3 36 14 l35 21 -7 -22
c-4 -13 -9 -30 -12 -38 -2 -8 10 2 27 22 18 21 37 37 44 35 6 -1 11 3 12 9 0
7 27 38 60 71 56 54 61 57 83 44 12 -7 22 -19 22 -26z m-2473 19 c-3 -3 -12
-4 -19 -1 -8 3 -5 6 6 6 11 1 17 -2 13 -5z m290 0 c-3 -3 -12 -4 -19 -1 -8 3
-5 6 6 6 11 1 17 -2 13 -5z m3383 -9 c11 -13 10 -14 -4 -9 -9 3 -16 10 -16 15
0 13 6 11 20 -6z m-1597 -9 c21 -16 16 -21 -33 -31 -19 -4 -43 -14 -53 -23 -9
-8 -20 -13 -23 -10 -3 3 11 18 30 33 25 19 43 26 58 22 22 -6 22 -6 4 8 -11 8
-16 15 -10 15 5 0 17 -7 27 -14z m-108 -26 c-3 -4 -15 -6 -27 -2 -21 5 -21 6
-2 12 21 8 37 3 29 -10z m-708 -129 c4 -67 2 -111 -3 -111 -5 0 -10 8 -10 18
0 9 -4 67 -8 127 -5 79 -4 105 4 93 6 -9 13 -67 17 -127z m-1147 125 c0 -2
-12 -11 -27 -20 l-28 -17 24 20 c23 21 31 25 31 17z m-2703 -32 c-3 -3 -12 -4
-19 -1 -8 3 -5 6 6 6 11 1 17 -2 13 -5z m253 -24 c0 -5 -2 -10 -4 -10 -3 0 -8
5 -11 10 -3 6 -1 10 4 10 6 0 11 -4 11 -10z m13 -52 c-3 -15 -9 -25 -14 -22
-5 3 -9 0 -9 -7 0 -7 -2 -10 -5 -7 -3 2 2 19 11 37 19 38 24 37 17 -1z m3550
-58 c5 -57 5 -59 -3 -20 -17 85 -21 116 -11 100 5 -8 11 -44 14 -80z m-3523
13 c0 -43 -5 -41 -13 5 -4 18 -2 32 3 32 6 0 10 -16 10 -37z m-200 12 c-33
-19 -50 -18 -26 0 11 8 27 15 35 15 10 -1 7 -6 -9 -15z m120 -20 c-7 -9 -9
-19 -5 -23 4 -4 10 -1 12 6 10 28 20 9 19 -36 -2 -47 -31 -118 -63 -154 -12
-13 -20 -15 -34 -8 -10 6 -25 10 -34 10 -14 0 -12 -4 6 -19 20 -17 22 -22 10
-33 -10 -9 -12 -9 -7 0 4 6 3 12 -3 12 -5 0 -16 3 -25 6 -10 4 -16 1 -16 -9 0
-8 9 -17 20 -20 17 -4 19 -11 14 -58 -8 -79 -10 -82 -36 -68 -19 10 -24 8 -42
-14 -16 -19 -27 -25 -44 -21 -25 7 -29 -3 -7 -20 12 -10 12 -14 -4 -35 -17
-23 -20 -23 -35 -9 -12 12 -13 18 -3 21 6 3 2 6 -11 6 -18 1 -21 4 -13 19 7
13 8 87 1 87 -1 0 -4 16 -5 35 -2 24 4 42 19 59 11 13 15 21 9 17 -27 -15 -11
16 28 59 24 26 51 45 63 45 46 1 191 98 173 116 -4 4 -13 1 -22 -6 -25 -21
-17 -3 13 28 28 30 45 35 22 7z m3063 -168 c8 -33 10 -54 5 -49 -5 5 -13 25
-18 43 -5 19 -16 55 -26 81 -9 28 -13 55 -9 65 8 18 10 13 48 -140z m-4105 74
c-2 -33 -7 -56 -11 -52 -8 8 1 111 9 111 2 0 3 -27 2 -59z m4781 14 c13 -30
17 -53 12 -72 l-7 -28 -18 28 c-16 24 -21 54 -17 105 2 22 10 13 30 -33z
m-4058 14 c14 -27 -10 -110 -45 -153 -22 -28 -24 -29 -33 -10 -16 29 -27 103
-13 84 9 -12 10 -8 5 16 -11 59 59 112 86 63z m-4459 -21 c40 -18 136 -64 213
-104 77 -39 185 -91 240 -114 55 -23 138 -62 185 -86 101 -52 253 -118 295
-128 53 -13 195 -86 195 -101 0 -7 -14 -51 -30 -96 -17 -45 -33 -110 -36 -143
-7 -74 -24 -156 -33 -156 -3 0 -50 44 -103 98 -58 59 -121 111 -158 132 -33
19 -84 49 -113 65 -29 17 -81 43 -117 59 -36 16 -100 49 -143 73 -103 58 -228
112 -357 152 -116 37 -300 126 -300 144 0 11 34 56 101 135 10 12 19 25 19 29
0 11 51 73 60 73 5 0 42 -14 82 -32z m3715 10 c-3 -8 -6 -5 -6 6 -1 11 2 17 5
13 3 -3 4 -12 1 -19z m5600 -24 c2 -6 -9 -14 -24 -17 -20 -4 -34 0 -48 14 -20
20 -20 20 24 17 25 -2 46 -8 48 -14z m-5630 -36 c-3 -7 -5 -2 -5 12 0 14 2 19
5 13 2 -7 2 -19 0 -25z m1215 -7 c-4 -21 -2 -24 9 -13 8 7 41 12 85 12 47 0
74 4 76 12 2 6 10 8 17 4 9 -6 5 -16 -13 -41 -22 -29 -24 -37 -15 -64 14 -41
5 -65 -22 -58 -12 3 -28 0 -35 -8 -18 -18 -36 -64 -28 -76 3 -5 -4 -9 -16 -9
-11 0 -23 7 -26 15 -5 12 -9 11 -27 -5 -26 -25 -30 -25 -52 0 -12 14 -16 28
-12 49 4 17 2 33 -3 36 -6 3 -9 16 -9 28 1 17 2 18 6 5 2 -10 11 -18 20 -18
11 0 14 6 10 21 -3 11 1 44 8 72 7 28 12 54 10 58 -2 3 2 6 9 6 8 0 11 -9 8
-26z m-46 -31 c1 -28 0 -50 -2 -50 -7 0 -24 81 -19 90 13 21 20 8 21 -40z
m6081 13 c-3 -10 -5 -4 -5 12 0 17 2 24 5 18 2 -7 2 -21 0 -30z m-3125 2 c3
-13 1 -22 -3 -19 -9 5 -13 44 -5 44 2 0 6 -11 8 -25z m1514 -33 c-3 -25 -6
-59 -6 -76 0 -40 -14 -21 -35 49 -14 44 -14 51 -1 61 9 6 23 11 32 11 14 0 15
-8 10 -45z m-5624 -26 c8 5 9 -8 6 -41 -4 -29 -2 -42 3 -34 6 10 9 8 9 -9 0
-13 -4 -20 -10 -17 -5 3 -10 1 -10 -4 0 -6 4 -11 9 -11 15 0 0 -82 -24 -132
-22 -46 -22 -47 -34 -22 -8 19 -8 24 0 18 9 -5 10 1 5 20 -4 15 -3 26 1 23 4
-3 9 41 10 97 2 55 6 117 10 136 l7 35 4 -33 c2 -20 7 -30 14 -26z m6305 27
c18 -54 68 -176 92 -226 l28 -57 -106 -51 c-58 -28 -135 -62 -171 -76 -36 -14
-69 -29 -74 -34 -14 -13 -76 -11 -76 2 0 5 4 8 9 5 5 -3 29 14 55 38 46 44 46
45 47 18 0 -15 2 -22 4 -17 1 6 13 46 25 90 12 44 26 85 30 90 13 17 50 134
50 158 0 34 11 67 20 62 5 -3 11 -1 15 5 10 16 45 11 52 -7z m1053 -120 c0
-143 22 -274 60 -351 16 -33 33 -63 37 -65 5 -3 -4 20 -20 52 l-28 57 10 185
c6 101 11 199 11 217 0 17 4 32 8 32 5 0 14 -73 20 -162 15 -209 37 -290 98
-352 l44 -44 -26 -17 c-32 -21 -94 -13 -120 16 -16 18 -18 18 -30 1 -12 -15
-14 -14 -27 18 -33 77 -48 186 -53 370 -4 131 -2 181 5 170 6 -8 11 -65 11
-127z m-6948 86 c32 -16 62 -29 68 -29 13 0 43 -24 120 -98 65 -63 65 -63 25
-46 -211 90 -203 87 -335 93 l-124 6 29 23 c135 104 118 101 217 51z m248 -4
c0 -21 -6 -37 -16 -43 -19 -11 -25 -51 -10 -71 9 -12 8 -13 -5 -5 -9 5 -29 20
-45 34 l-29 24 45 47 c25 26 48 47 53 48 4 1 7 -15 7 -34z m3530 0 c0 -5 -5
-3 -10 5 -5 8 -10 20 -10 25 0 6 5 3 10 -5 5 -8 10 -19 10 -25z m-130 5 c-15
-10 -60 -14 -60 -5 0 6 64 23 70 18 2 -2 -2 -8 -10 -13z m-2304 -48 c-18 -16
-18 -16 -6 6 6 13 14 21 18 18 3 -4 -2 -14 -12 -24z m3140 -36 c-1 -35 -7 -49
-28 -65 -16 -13 -33 -19 -44 -14 -10 3 -15 2 -12 -3 8 -12 -51 -16 -71 -4 -12
7 -8 8 14 5 31 -6 65 8 52 22 -4 4 -16 2 -25 -3 -25 -16 -63 0 -56 23 5 17 5
17 -6 0 -6 -9 -9 -26 -5 -36 3 -10 -1 -24 -10 -31 -8 -7 -12 -16 -9 -21 9 -15
24 -10 25 9 0 9 3 12 5 5 4 -8 17 -10 37 -7 l32 5 -35 -14 c-176 -72 -222 -78
-339 -42 -111 34 -161 71 -161 119 0 31 3 34 38 40 66 11 387 7 399 -5 8 -8
15 -5 25 9 14 20 14 20 56 2 40 -18 43 -18 40 -2 -2 11 3 17 15 16 20 -2 22 7
5 24 -9 9 -4 12 24 12 l36 0 -2 -44z m-1220 -1 c-7 -29 -78 -80 -101 -71 -20
7 -19 26 0 26 9 0 34 18 57 40 45 43 54 44 44 5z m2974 25 c0 -5 -2 -10 -4
-10 -3 0 -8 5 -11 10 -3 6 -1 10 4 10 6 0 11 -4 11 -10z m-5990 -8 c0 -5 -7
-9 -15 -9 -8 0 -12 4 -9 9 3 4 9 8 15 8 5 0 9 -4 9 -8z m3251 -1 c-8 -5 -20
-7 -28 -4 -21 8 -15 13 15 13 20 0 23 -3 13 -9z m384 -1 c-3 -5 -12 -10 -18
-10 -7 0 -6 4 3 10 19 12 23 12 15 0z m380 0 c3 -5 -3 -10 -14 -10 -12 0 -21
5 -21 10 0 6 6 10 14 10 8 0 18 -4 21 -10z m1785 0 c-20 -13 -33 -13 -25 0 3
6 14 10 23 10 15 0 15 -2 2 -10z m267 4 c-3 -3 -12 -4 -19 -1 -8 3 -5 6 6 6
11 1 17 -2 13 -5z m-2264 -11 c-7 -2 -19 -2 -25 0 -7 3 -2 5 12 5 14 0 19 -2
13 -5z m2297 -3 c0 -5 -2 -10 -4 -10 -3 0 -8 5 -11 10 -3 6 -1 10 4 10 6 0 11
-4 11 -10z m-2605 -30 c-3 -5 -1 -10 6 -10 20 0 -4 -20 -29 -25 -19 -3 -21 -1
-12 15 8 15 20 25 38 29 2 1 0 -3 -3 -9z m2491 -32 c-3 -19 -17 -42 -33 -53
-73 -55 -132 -108 -128 -116 3 -4 -10 -15 -30 -25 -44 -21 -53 -34 -23 -34 13
0 29 -4 37 -9 17 -11 90 5 121 28 30 22 48 17 60 -15 6 -14 18 -28 27 -31 10
-4 29 -19 44 -34 25 -26 27 -26 32 -8 3 10 1 17 -3 14 -5 -3 -11 -1 -15 5 -3
5 -1 10 5 10 6 0 8 10 4 26 l-7 27 23 -23 23 -23 -24 -46 c-14 -25 -31 -45
-38 -43 -7 1 -10 -1 -7 -6 3 -5 -2 -19 -10 -31 -15 -21 -17 -22 -35 -5 -11 10
-17 24 -15 31 3 7 1 15 -5 18 -5 4 -12 -1 -15 -9 -7 -18 -34 -22 -34 -5 0 7
-10 9 -26 5 -19 -5 -24 -4 -18 6 4 7 9 24 10 38 1 14 0 19 -3 13 -2 -7 -12
-13 -20 -13 -13 0 -13 3 -3 15 15 18 -1 20 -18 3 -14 -14 2 -38 27 -39 9 0 3
-6 -14 -14 l-30 -14 43 -7 c55 -9 54 -28 -3 -44 -35 -10 -43 -16 -35 -25 12
-15 -3 -30 -20 -20 -5 3 -7 -7 -5 -25 3 -26 1 -29 -11 -19 -16 13 -19 23 -4
14 6 -3 10 -2 10 3 0 21 -68 32 -199 34 -75 1 -118 3 -96 5 22 3 45 9 51 14 7
6 23 7 37 4 14 -4 35 -1 48 6 17 9 24 9 27 0 6 -17 21 -13 18 5 -1 9 -9 20
-17 24 -19 11 -181 -21 -204 -40 -14 -12 -58 -16 -216 -18 l-198 -4 -60 36
c-90 55 -121 95 -121 157 0 28 4 58 9 68 6 10 42 32 82 51 58 26 73 30 80 19
15 -24 10 -45 -16 -75 -15 -16 -33 -41 -42 -56 l-17 -27 -30 22 c-21 14 -27
16 -18 4 8 -9 35 -28 60 -42 61 -34 143 -40 286 -19 135 19 182 38 479 184 80
41 190 119 210 151 16 25 21 16 13 -23z m-2786 12 c-8 -5 -19 -10 -25 -10 -5
0 -3 5 5 10 8 5 20 10 25 10 6 0 3 -5 -5 -10z m60 -10 c-14 -4 -32 -8 -40 -9
-13 -1 -13 0 0 9 8 5 26 9 40 9 l25 -1 -25 -8z m2844 -6 c3 -8 2 -12 -4 -9 -6
3 -10 10 -10 16 0 14 7 11 14 -7z m-6585 -3 c3 0 -3 -7 -11 -13 -14 -11 -15
-15 -3 -25 11 -10 16 -7 27 17 7 17 19 30 25 30 18 0 16 -19 -2 -26 -8 -4 -15
-15 -15 -25 0 -10 -4 -19 -9 -19 -5 0 -11 -9 -14 -19 -3 -14 -14 -19 -41 -19
-21 0 -40 -3 -43 -6 -4 -3 12 -6 35 -6 23 0 42 -4 42 -9 0 -10 -145 -25 -160
-16 -5 3 -10 0 -10 -7 0 -10 39 -13 176 -14 151 -2 382 -20 372 -30 -2 -1 -46
-9 -98 -17 -69 -11 -185 -15 -423 -15 -227 0 -332 -3 -340 -11 -6 -6 -15 -11
-20 -11 -18 0 25 32 55 41 50 14 199 39 234 39 26 0 33 5 38 25 4 15 14 25 24
25 11 0 13 3 6 8 -9 5 -9 10 0 17 11 11 29 12 53 3 3 -2 7 5 9 15 1 11 -2 14
-9 10 -7 -4 -18 -8 -25 -9 -23 -4 -6 20 34 48 33 22 60 28 93 19z m3636 -1
c-3 -5 -12 -10 -18 -10 -7 0 -6 4 3 10 19 12 23 12 15 0z m1115 -48 c0 -23
-55 -67 -101 -81 -24 -7 -67 -24 -95 -37 -28 -13 -60 -24 -72 -24 -12 0 -45
-6 -75 -14 -30 -8 -96 -18 -145 -21 l-91 -7 -73 45 c-40 25 -84 56 -97 69 -13
12 -21 17 -16 10 5 -10 -2 -9 -25 3 -17 9 -30 19 -27 21 7 8 77 -7 77 -16 0
-4 11 -5 24 -3 13 3 61 -4 106 -16 45 -11 87 -18 93 -14 6 4 7 1 2 -7 -6 -10
15 -12 106 -7 96 4 122 9 164 31 28 14 57 26 65 26 21 0 88 37 124 67 28 24
31 24 43 7 7 -10 13 -24 13 -32z m-3268 -38 c-3 -68 -2 -75 14 -72 9 1 22 17
28 35 19 57 34 61 41 12 10 -68 9 -110 -3 -164 -6 -30 -7 -51 -1 -53 5 -2 9
-12 9 -23 0 -14 7 -19 25 -19 32 0 95 -26 95 -38 0 -5 -13 -12 -30 -15 -16 -4
-30 -11 -30 -17 0 -8 6 -8 20 0 30 16 24 0 -12 -32 -36 -32 -41 -33 -57 -14
-12 15 -41 103 -41 126 0 13 1 13 10 0 7 -11 10 -12 10 -2 0 8 -9 25 -20 39
-11 14 -20 35 -20 46 0 11 -3 17 -6 14 -4 -3 -21 13 -38 36 -28 38 -31 49 -31
115 0 61 3 76 19 88 11 8 20 14 20 14 1 0 0 -34 -2 -76z m-1424 49 c-9 -10
-18 -35 -22 -55 -4 -21 -11 -38 -17 -38 -6 0 -7 5 -4 10 3 6 -2 10 -12 11 -10
0 -13 3 -5 6 6 2 12 9 12 14 0 15 42 69 53 69 6 0 3 -8 -5 -17z m2808 -10 c-7
-7 -26 7 -26 19 0 6 6 6 15 -2 9 -7 13 -15 11 -17z m1033 6 c-10 -6 -7 -9 11
-10 22 0 23 -1 5 -8 -24 -10 -47 9 -33 26 6 7 15 10 20 7 6 -4 5 -10 -3 -15z
m-6849 -54 c63 -29 170 -76 237 -105 68 -29 127 -58 133 -65 5 -6 23 -65 39
-131 43 -175 43 -174 30 -174 -8 0 -7 -6 2 -17 13 -17 12 -17 -4 -4 -27 21
-117 158 -109 166 4 4 2 5 -4 3 -6 -1 -28 12 -48 30 -20 18 -47 37 -60 43 -23
11 -23 13 -11 48 11 33 16 36 46 33 18 -1 38 -7 44 -12 7 -5 14 -8 17 -5 8 8
26 -18 43 -61 12 -31 14 -33 9 -9 -11 58 -27 78 -79 95 -27 10 -75 32 -105 50
-54 32 -127 67 -262 126 -37 16 -68 34 -68 41 0 15 7 13 150 -52z m4009 -14
c12 -25 7 -26 -43 -5 -14 5 -17 4 -12 -4 4 -7 3 -12 -2 -12 -18 0 -21 13 -6
27 13 14 13 18 -1 39 -8 13 -15 26 -15 30 0 12 68 -52 79 -75z m1756 69 c-3
-5 -10 -10 -16 -10 -5 0 -9 5 -9 10 0 6 7 10 16 10 8 0 12 -4 9 -10z m3483
-15 c-12 -27 -29 -29 -36 -4 -3 12 -2 12 6 0 8 -11 12 -10 21 8 16 29 23 26 9
-4z m269 3 c-3 -8 -6 -5 -6 6 -1 11 2 17 5 13 3 -3 4 -12 1 -19z m50 -116 c7
-60 -10 -74 -36 -31 -17 27 -21 30 -22 14 0 -11 -3 -15 -5 -8 -3 7 -1 20 5 30
9 16 11 14 21 -14 7 -18 16 -30 21 -27 5 3 2 18 -6 34 -19 38 -19 52 1 20 l15
-25 -7 30 c-16 72 -21 105 -15 111 6 6 15 -42 28 -134z m-2607 124 c0 -2 -7
-7 -16 -10 -8 -3 -12 -2 -9 4 6 10 25 14 25 6z m-425 -26 c10 -11 13 -20 8
-20 -6 0 -16 7 -23 15 -7 8 -27 14 -44 14 -27 -2 -28 -2 -6 -6 14 -3 33 -13
42 -23 16 -17 16 -19 0 -25 -12 -5 -13 -8 -4 -14 9 -5 -6 -17 -45 -34 -76 -34
-107 -65 -123 -121 -7 -27 -18 -46 -27 -46 -8 0 -11 -5 -7 -12 5 -10 4 -10 -5
-2 -25 23 -24 86 3 163 14 40 31 80 38 89 37 44 161 58 193 22z m462 14 c-3
-3 -12 -4 -19 -1 -8 3 -5 6 6 6 11 1 17 -2 13 -5z m-3496 -54 c49 -47 34 -53
-38 -15 -27 13 -57 27 -68 30 -16 5 -17 8 -5 15 32 20 69 10 111 -30z m2283
24 c3 -8 2 -12 -4 -9 -6 3 -10 10 -10 16 0 14 7 11 14 -7z m-1818 -54 c9 0 12
-4 9 -10 -3 -5 4 -10 15 -10 12 0 35 -11 52 -25 16 -14 35 -25 41 -25 14 -1
57 -35 57 -46 0 -4 -9 1 -20 11 -18 17 -50 23 -121 24 -34 1 -65 28 -73 65 -6
24 -4 27 9 22 9 -3 23 -6 31 -6z m1884 -36 c0 -3 -11 -2 -25 2 -15 4 -25 2
-25 -5 0 -6 -4 -11 -10 -11 -15 0 -12 38 3 43 11 4 57 -20 57 -29z m-2206 -15
c14 -11 24 -24 22 -28 -6 -10 -64 -5 -118 10 -40 10 -41 12 -23 25 28 21 88
17 119 -7z m616 -12 c-8 -7 -59 -61 -113 -122 -186 -210 -209 -235 -219 -235
-6 0 7 19 28 43 22 24 75 86 119 138 110 129 184 204 193 195 4 -4 0 -13 -8
-19z m690 8 c0 -13 -18 -15 -119 -15 -89 0 -121 3 -130 14 -10 12 8 14 119 15
111 2 130 0 130 -14z m784 6 c9 -14 -32 -21 -129 -21 -101 0 -165 8 -165 21 0
12 287 12 294 0z m2237 -11 c22 -6 39 -13 39 -15 0 -3 -145 -4 -322 -3 -320 2
-344 7 -119 26 120 11 351 6 402 -8z m-3626 -40 c10 -16 -5 -12 -35 10 -15 11
-30 16 -34 13 -4 -4 -4 0 0 10 6 16 8 15 35 -4 16 -11 31 -24 34 -29z m1529
-16 c28 -29 53 -44 78 -49 60 -11 70 -3 62 50 -8 56 9 60 32 8 12 -29 14 -55
9 -111 -6 -64 -10 -75 -31 -84 -13 -6 -24 -19 -24 -30 0 -21 -13 -23 -29 -5
-6 8 -28 19 -49 25 -48 15 -83 52 -88 93 -2 17 -9 38 -15 45 -6 8 -8 14 -3 14
5 1 -4 11 -20 24 -16 13 -26 30 -24 37 3 10 9 8 23 -8 10 -12 24 -19 31 -16
11 4 10 8 -3 21 -9 10 -21 17 -26 17 -6 0 -12 6 -15 13 -9 27 52 -2 92 -44z
m64 31 c-3 -3 -9 2 -12 12 -6 14 -5 15 5 6 7 -7 10 -15 7 -18z m42 -6 c0 -5
-4 -9 -10 -9 -5 0 -10 7 -10 16 0 8 5 12 10 9 6 -3 10 -10 10 -16z m425 -9
c-10 -11 -22 -20 -28 -20 -5 0 1 9 14 20 31 25 37 25 14 0z m3682 -2 c-3 -8
-6 -5 -6 6 -1 11 2 17 5 13 3 -3 4 -12 1 -19z m-7671 0 c4 -6 3 -9 -2 -5 -5 3
-32 1 -59 -3 -28 -4 -105 -16 -173 -26 -67 -10 -117 -21 -112 -24 6 -4 -24
-12 -66 -18 -43 -7 -82 -16 -88 -20 -6 -4 -29 -14 -51 -21 -22 -8 -60 -30 -85
-51 -111 -90 -161 -107 -77 -26 107 104 310 170 602 195 50 5 93 9 97 10 4 0
10 -4 14 -11z m1318 -70 c37 -48 45 -65 25 -52 -8 4 -9 -1 -5 -17 3 -13 3 -18
0 -11 -9 19 -20 15 -59 -19 -20 -18 -38 -29 -42 -26 -8 9 67 77 84 77 7 0 13
5 13 10 0 14 -16 12 -52 -6 -28 -15 -30 -15 -25 0 4 9 2 16 -4 16 -6 0 -7 5
-4 10 3 6 2 10 -2 10 -7 0 -10 33 -4 62 3 17 42 -11 75 -54z m4873 20 c-3 -8
-6 -5 -6 6 -1 11 2 17 5 13 3 -3 4 -12 1 -19z m2334 8 c5 3 9 4 9 2 -1 -11
-533 -538 -563 -558 -82 -55 -111 -76 -139 -102 -16 -16 -33 -28 -36 -28 -4 0
-13 -9 -20 -20 -7 -11 -18 -17 -27 -14 -12 5 -14 2 -8 -12 6 -17 5 -17 -10 -5
-16 12 -22 8 -18 -12 1 -5 -8 -11 -19 -14 -11 -3 -17 -9 -14 -14 3 -5 0 -9 -5
-9 -6 0 -11 4 -11 9 0 14 738 736 765 747 14 5 22 13 19 17 -4 4 -3 7 2 7 6 0
15 -5 21 -11 8 -8 15 -5 24 12 7 15 14 19 17 11 2 -6 8 -10 13 -6z m-6298 -3
c-7 -2 -13 -9 -13 -15 0 -6 -8 -16 -17 -23 -16 -12 -16 -14 6 -33 l25 -19 -32
5 c-34 5 -41 23 -19 47 6 8 18 21 25 30 7 8 18 15 25 14 9 0 9 -2 0 -6z m1152
-23 c-3 -11 -2 -20 3 -20 6 0 12 -7 16 -15 3 -8 1 -15 -4 -15 -14 0 -32 39
-26 56 8 22 18 17 11 -6z m465 -3 c0 -7 10 -21 22 -31 l22 -19 -23 -18 c-12
-10 -22 -22 -21 -26 0 -4 -10 -26 -21 -49 -21 -38 -24 -40 -58 -34 -26 4 -36
11 -35 23 1 9 -3 17 -10 17 -6 0 4 10 22 21 17 12 35 32 38 45 7 29 13 30 30
7 7 -10 16 -15 20 -11 4 5 0 16 -10 27 -13 14 -14 24 -6 45 10 26 30 28 30 3z
m-1813 -19 c9 -13 27 -85 38 -160 4 -26 -1 -52 -21 -95 -14 -32 -30 -68 -35
-81 -8 -22 -10 -22 -34 -6 -15 9 -39 17 -55 16 -35 -1 -39 11 -47 149 -4 74
-2 108 6 113 15 10 14 29 -1 20 -10 -5 -10 -4 -1 6 20 21 46 -7 39 -42 -3 -15
-3 -35 1 -43 5 -14 7 -14 24 0 17 16 17 15 12 -7 -6 -20 -5 -21 10 -10 24 20
50 97 43 127 -7 26 5 34 21 13z m5807 -74 c19 -5 24 -10 17 -17 -12 -12 -81
15 -81 31 0 18 15 23 25 8 6 -8 24 -18 39 -22z m-6497 -30 c-17 -16 -38 -28
-44 -26 -20 7 -15 15 22 41 19 13 35 29 35 35 0 6 5 4 10 -4 7 -11 1 -23 -23
-46z m5671 19 c-16 -20 -73 -49 -62 -32 5 9 2 11 -12 6 -14 -5 -12 -2 6 13 14
11 31 17 38 15 23 -8 34 5 20 23 -12 15 -11 16 5 3 14 -11 15 -17 5 -28z
m-1163 0 c-4 -16 -8 -30 -10 -31 -7 -7 -125 -18 -124 -13 0 7 119 69 133 70 4
1 5 -11 1 -26z m2155 12 c0 -12 -19 -12 -23 0 -4 9 -1 12 9 8 7 -3 14 -7 14
-8z m-1433 -11 c-3 -3 -12 -4 -19 -1 -8 3 -5 6 6 6 11 1 17 -2 13 -5z m-2887
-11 c0 -5 -12 -16 -25 -26 -22 -16 -25 -16 -25 -2 0 9 10 20 23 25 29 11 27
11 27 3z m-2289 -20 c13 -16 12 -17 -3 -4 -10 7 -18 15 -18 17 0 8 8 3 21 -13z
m6569 -8 c-7 -8 -17 -15 -22 -15 -11 0 14 29 26 30 5 0 3 -7 -4 -15z m-6596
-1 c9 -3 13 -10 10 -15 -3 -5 2 -6 11 -3 15 6 32 -9 55 -48 10 -16 9 -16 -19
0 -16 9 -27 21 -24 26 3 5 1 6 -5 2 -16 -10 -61 14 -55 30 6 16 6 16 27 8z
m5432 -26 c50 -43 89 -84 144 -149 25 -29 64 -73 86 -98 172 -191 282 -317
279 -320 -8 -7 -33 19 -219 227 -106 119 -216 242 -244 272 l-50 54 -168 4
c-131 4 -165 2 -159 -8 6 -9 41 -11 134 -9 69 2 127 0 128 -5 2 -5 -86 -7
-200 -6 -251 3 -262 4 -261 18 1 7 2 19 3 27 1 12 27 15 144 17 78 2 188 4
244 6 l101 3 38 -33z m-3096 -43 c2 -18 4 -23 7 -12 2 9 8 15 13 12 5 -3 11
-1 15 5 3 5 15 10 27 10 16 0 19 -5 15 -22 -3 -13 -15 -68 -27 -123 -12 -55
-23 -101 -25 -103 -2 -2 -20 48 -40 112 -19 64 -37 116 -39 116 -2 0 -1 -22 2
-48 3 -38 0 -52 -14 -67 -19 -18 -19 -18 -22 30 -4 66 2 87 39 126 30 32 32
33 40 14 4 -11 8 -33 9 -50z m-90 45 c0 -5 -2 -10 -4 -10 -3 0 -8 5 -11 10 -3
6 -1 10 4 10 6 0 11 -4 11 -10z m4235 0 c-3 -5 -12 -10 -18 -10 -7 0 -6 4 3
10 19 12 23 12 15 0z m-7670 -16 c176 -15 330 -39 430 -68 28 -8 66 -19 85
-24 l35 -10 -41 -1 c-22 -1 -65 3 -95 8 -30 5 -90 12 -133 15 -49 4 -85 11
-95 20 -14 13 -83 14 -531 6 -283 -5 -540 -12 -570 -15 -30 -3 -131 -12 -225
-20 -93 -9 -214 -25 -268 -36 -189 -39 -108 -6 143 60 109 28 263 52 450 70
153 15 623 12 815 -5z m3358 -11 c-4 -11 -3 -14 5 -9 7 4 12 1 12 -8 0 -8 -6
-19 -14 -23 -8 -4 -16 -21 -18 -38 -4 -40 -22 -38 -26 2 -2 21 4 42 19 63 26
34 31 37 22 13z m4225 -28 c-20 -14 -40 -25 -45 -25 -11 0 60 49 72 50 5 0 -7
-11 -27 -25z m-6010 -12 c-4 -22 -48 -31 -48 -10 0 19 10 27 32 27 13 0 18 -6
16 -17z m-1413 -15 c52 -24 30 -31 -150 -48 -60 -5 -125 -12 -142 -15 -18 -3
-33 -2 -33 4 0 5 28 12 63 16 34 4 71 11 82 16 32 12 -41 11 -108 -2 -44 -9
-57 -16 -59 -32 -2 -11 -8 -22 -15 -24 -13 -5 -53 31 -53 47 0 19 50 30 138
31 48 0 107 4 132 8 68 13 116 12 145 -1z m1345 -5 c0 -5 -15 -18 -32 -30 -24
-17 -34 -19 -40 -10 -12 19 -10 25 20 35 34 13 52 14 52 5z m29 -22 c21 -13 5
-43 -39 -73 -45 -31 -73 -37 -64 -13 4 8 1 15 -6 15 -13 0 -39 28 -40 43 0 16
23 6 42 -18 22 -28 48 -33 48 -10 0 17 29 65 39 65 3 0 12 -4 20 -9z m-1808
-43 c-10 -26 -295 -343 -426 -473 -44 -44 -120 -124 -169 -178 -49 -54 -91
-95 -95 -92 -3 4 11 20 32 37 21 17 42 39 48 50 9 16 1 14 -43 -11 -73 -42
-169 -171 -127 -171 6 0 8 7 5 16 -5 14 -4 15 9 4 22 -18 85 -6 190 39 49 21
113 46 140 56 28 10 111 49 185 88 225 118 244 127 272 127 15 0 30 -5 33 -11
9 -14 -15 -70 -26 -63 -5 3 -9 -1 -9 -8 -1 -24 -117 -117 -217 -174 -54 -31
-107 -66 -118 -78 -11 -12 -16 -16 -11 -9 5 8 4 13 -2 13 -15 0 -23 -16 -16
-33 7 -18 29 -7 171 90 l93 63 21 -41 c29 -58 20 -81 -54 -130 -81 -55 -167
-128 -167 -142 0 -6 15 3 33 19 17 17 49 42 69 57 33 24 38 26 52 11 9 -9 16
-32 16 -54 0 -40 -16 -56 -136 -137 -33 -22 -67 -63 -59 -71 2 -2 20 12 40 32
19 20 39 36 44 36 8 0 31 -44 31 -60 0 -10 -141 -129 -222 -186 -31 -22 -76
-47 -99 -54 -41 -14 -42 -14 -68 16 -14 17 -58 69 -98 115 -39 46 -138 153
-221 236 -130 134 -148 155 -137 170 7 10 31 54 55 98 70 131 73 135 131 170
30 19 72 48 93 65 40 31 82 38 117 20 14 -8 23 -8 33 2 7 7 40 19 74 27 68 15
58 6 217 192 158 183 317 360 321 356 3 -2 0 -15 -5 -29z m8349 18 c0 -2 -8
-10 -17 -17 -16 -13 -17 -12 -4 4 13 16 21 21 21 13z m-4783 -48 c-3 -7 -5 -2
-5 12 0 14 2 19 5 13 2 -7 2 -19 0 -25z m-1801 -53 c-9 -14 -26 -25 -39 -25
-18 0 -19 -2 -7 -10 13 -9 13 -10 0 -10 -19 0 -60 28 -60 41 0 5 15 9 33 9 17
1 43 7 57 15 32 17 37 12 16 -20z m331 -4 c30 -45 37 -72 28 -117 l-6 -36 -17
23 c-22 32 -52 58 -81 69 -15 7 -21 16 -17 26 4 9 -2 18 -17 24 -12 5 -16 9
-8 9 11 1 11 4 1 16 -11 13 -10 14 5 9 13 -5 16 -4 11 5 -6 9 3 11 35 9 37 -3
47 -8 66 -37z m1283 28 c-26 -5 -53 -18 -62 -30 -14 -16 -18 -17 -18 -6 0 30
30 47 78 46 l47 -1 -45 -9z m-4845 -49 c3 -5 0 -10 -7 -10 -7 0 -24 -3 -38 -6
l-25 -5 25 15 c30 18 37 19 45 6z m3981 -30 c57 -20 59 -31 61 -310 1 -140 -1
-247 -3 -237 -3 9 -9 17 -12 17 -4 0 -8 97 -9 215 -2 262 -7 280 -84 290 -32
5 -49 12 -49 21 0 17 53 19 96 4z m-444 -78 c51 -51 55 -64 33 -102 -13 -22
-21 -16 -16 12 0 4 -7 18 -17 30 -40 51 -74 76 -117 87 -63 16 -49 35 19 27
43 -6 58 -14 98 -54z m-3712 43 c0 -2 -10 -9 -22 -15 -22 -11 -22 -10 -4 4 21
17 26 19 26 11z m9166 -42 c55 -26 79 -50 207 -215 l38 -48 -50 -58 c-27 -31
-65 -90 -85 -131 -35 -73 -35 -73 -166 -162 l-132 -89 -56 36 c-76 48 -81 53
-97 107 -14 47 -8 60 15 32 7 -8 17 -15 23 -15 6 0 -19 28 -56 63 -44 41 -67
70 -67 85 0 12 2 22 5 22 3 0 30 -16 60 -37 31 -20 58 -33 61 -30 9 8 -108 81
-127 80 -15 -1 -49 53 -49 77 0 16 33 12 109 -14 39 -13 73 -20 76 -16 3 5
-36 22 -87 39 -51 16 -127 41 -168 55 -41 14 -110 28 -153 32 -72 5 -77 7 -83
31 -8 32 3 39 86 53 90 16 201 -2 460 -77 134 -39 163 -44 231 -41 57 3 61 5
39 15 -15 6 -29 7 -34 2 -20 -19 -36 -9 -36 23 0 25 3 29 12 20 22 -22 30 -12
13 16 -29 44 -67 71 -87 61 -33 -18 -85 -10 -117 18 -38 33 -39 43 -6 43 33 0
86 22 104 44 17 20 38 17 117 -21z m-9138 -2 c24 -7 24 -8 7 -13 -12 -3 -28 3
-40 15 -11 11 -14 17 -7 12 8 -4 26 -10 40 -14z m9259 -38 c-3 -10 -5 -2 -5
17 0 19 2 27 5 18 2 -10 2 -26 0 -35z m-5653 23 c43 -18 76 -61 76 -100 l-1
-31 -13 31 c-18 40 -51 72 -101 95 -31 14 -35 19 -17 19 12 0 37 -6 56 -14z
m485 -10 c10 -9 22 -29 26 -44 11 -46 20 -212 12 -215 -5 -1 -3 -23 3 -48 7
-26 10 -79 8 -118 -2 -46 1 -71 8 -71 7 0 8 -17 4 -48 -6 -52 -15 -72 -32 -72
-7 0 -9 38 -4 124 7 114 6 125 -11 134 -12 7 -22 32 -31 79 -7 37 -17 72 -22
77 -4 4 -45 13 -89 19 -68 9 -81 14 -81 29 0 14 8 18 38 17 76 -2 154 -16 162
-29 5 -8 12 -11 16 -8 10 10 -5 113 -19 132 -15 20 -74 35 -134 36 -33 0 -43
4 -43 16 0 14 11 16 85 12 62 -3 90 -9 104 -22z m1081 13 c0 -12 -42 -39 -62
-39 -35 0 -68 -19 -61 -36 5 -12 7 -13 14 -2 10 15 12 7 3 -16 -3 -9 -10 -13
-15 -10 -6 3 -9 -50 -8 -138 1 -78 -2 -150 -6 -159 -3 -10 -2 -19 2 -22 9 -5
-4 -187 -13 -196 -15 -16 -19 43 -19 294 0 326 -3 315 88 325 73 8 77 8 77 -1z
m268 -81 c-3 -21 -11 -24 -92 -34 -113 -13 -131 -31 -141 -138 -7 -65 -16 -85
-38 -86 -16 0 3 174 22 199 27 38 88 64 165 72 39 3 75 7 79 8 5 0 7 -9 5 -21z
m2896 -80 c5 -23 12 -27 48 -30 63 -5 62 -28 -2 -28 -62 0 -90 13 -90 42 0 21
33 67 36 51 1 -4 5 -20 8 -35z m-4698 -47 c-2 -28 -44 -98 -73 -123 -12 -10
-13 -7 -7 18 4 16 13 32 20 37 27 16 44 39 44 61 0 19 7 36 16 36 1 0 1 -13 0
-29z m4919 -51 c4 -7 13 -7 25 0 15 8 23 5 40 -12 11 -12 19 -29 18 -36 -3
-15 -117 -62 -149 -62 -49 0 -62 91 -16 110 30 12 75 12 82 0z m-4762 -42 l24
-22 -34 -33 c-26 -26 -40 -33 -61 -30 -23 3 -22 4 8 6 30 1 32 3 17 12 -10 6
-25 8 -33 5 -11 -4 -14 5 -14 39 0 45 0 45 34 45 21 0 44 -8 59 -22z m1082
-59 c11 -17 -1 -21 -15 -4 -8 9 -8 15 -2 15 6 0 14 -5 17 -11z m3798 -2 c7 -7
20 -27 30 -45 18 -32 18 -32 -5 -41 -60 -22 -128 -41 -147 -41 -33 0 -63 36
-59 72 3 34 14 40 113 57 28 5 51 9 53 10 2 0 9 -5 15 -12z m-4833 -26 c0 -5
-7 -11 -14 -14 -10 -4 -13 -1 -9 9 6 15 23 19 23 5z m-49 -92 c44 -11 85 -42
104 -78 23 -45 36 -186 33 -356 -3 -146 -4 -156 -16 -119 -6 23 -19 115 -27
205 -19 204 -32 245 -89 269 -22 10 -75 21 -116 24 -41 3 -76 5 -77 6 -6 1 -2
57 4 64 8 8 132 -2 184 -15z m4970 -28 c-7 -12 -6 -22 1 -29 15 -15 2 -30 -35
-37 -17 -4 -52 -14 -76 -22 -53 -18 -83 -6 -101 38 -16 37 -7 59 24 59 14 0
37 5 52 10 32 13 95 3 73 -11 -9 -6 -10 -9 -2 -9 6 0 15 -9 18 -20 4 -11 10
-18 15 -15 5 3 5 16 0 31 -13 33 -4 47 21 34 15 -8 17 -15 10 -29z m-3676
-103 c2 -42 0 -54 -5 -38 -10 31 -12 116 -3 107 3 -4 7 -35 8 -69z m545 25
c-1 -43 -12 -50 -85 -57 -83 -8 -132 -22 -156 -45 -20 -20 -39 -55 -39 -73 1
-7 7 1 15 17 12 27 13 21 10 -75 -2 -58 -4 -174 -4 -257 -1 -116 -4 -153 -14
-153 -15 0 -23 -155 -8 -164 5 -3 7 2 5 11 -2 10 0 32 6 48 7 22 8 0 5 -85 -3
-63 -1 -130 4 -148 9 -31 8 -33 -12 -30 -14 2 -29 17 -40 41 -17 34 -19 71
-20 445 -2 455 -1 464 65 498 42 22 268 45 268 27z m-1583 -35 c-3 -8 -6 -5
-6 6 -1 11 2 17 5 13 3 -3 4 -12 1 -19z m4703 12 c0 -5 -5 -10 -11 -10 -5 0
-7 5 -4 10 3 6 8 10 11 10 2 0 4 -4 4 -10z m-80 -10 c-20 -13 -33 -13 -25 0 3
6 14 10 23 10 15 0 15 -2 2 -10z m-5155 -36 c86 -10 246 -43 274 -57 38 -18
69 -93 86 -207 9 -55 20 -112 25 -126 17 -43 29 -107 45 -231 9 -63 25 -141
35 -172 11 -31 34 -97 51 -148 l31 -91 -22 -66 c-12 -36 -30 -76 -40 -88 l-19
-23 -1 35 c0 19 -11 85 -24 145 -14 61 -29 179 -36 265 -6 85 -19 207 -29 270
l-18 115 -8 -85 c-8 -90 -29 -160 -44 -144 -5 5 -11 88 -13 184 -3 165 -4 178
-28 220 -24 43 -27 45 -85 53 -33 4 -109 14 -169 23 -81 11 -111 12 -116 4 -9
-15 -20 39 -20 97 l0 45 38 -6 c20 -3 60 -8 87 -12z m5201 -1 c3 -10 13 -35
22 -57 13 -31 17 -35 23 -20 3 11 4 23 1 28 -3 5 0 6 6 2 7 -4 13 -15 13 -24
1 -9 4 -3 8 13 5 23 12 30 29 29 18 0 20 2 9 14 -9 12 -5 12 21 -2 18 -9 37
-14 42 -11 6 3 10 1 10 -5 0 -15 -41 -52 -83 -75 -32 -17 -38 -17 -73 -4 -27
10 -46 27 -61 54 -30 54 -30 75 2 75 16 0 28 -7 31 -17z m160 -14 c3 -6 -5 -3
-20 6 -14 10 -26 19 -26 22 0 7 39 -17 46 -28z m-2900 -113 c-3 -11 -6 -26 -6
-31 0 -6 -53 -16 -122 -24 -69 -7 -141 -20 -163 -30 -49 -22 -90 -68 -105
-119 -20 -69 -30 -296 -27 -655 1 -234 -1 -356 -8 -354 -5 2 -17 21 -25 43
-12 32 -15 104 -15 414 1 408 14 621 42 679 11 21 37 47 63 63 41 26 56 28
190 36 171 9 184 7 176 -22z m-1914 -299 c1 -20 -1 -39 -5 -43 -4 -4 -7 14 -7
41 0 56 8 57 12 2z m225 -30 c41 -11 62 -35 49 -56 -4 -5 2 -12 11 -14 16 -4
16 -5 1 -6 -9 0 -20 4 -23 9 -3 6 -24 10 -46 10 -61 0 -79 14 -79 61 0 37 -2
40 -22 34 -13 -4 -27 -11 -32 -16 -6 -5 -15 -9 -20 -9 -6 0 4 13 23 28 l33 28
31 -28 c16 -16 50 -34 74 -41z m-2888 50 c6 -8 7 -18 3 -22 -4 -5 0 -6 9 -2
22 7 102 -69 162 -155 48 -68 56 -85 35 -72 -7 4 -8 3 -4 -4 4 -6 2 -22 -4
-34 -11 -22 -10 -22 4 -4 12 14 16 16 16 5 0 -11 2 -12 9 0 7 10 10 10 16 1 4
-7 3 -15 -2 -19 -22 -14 -24 -62 -3 -91 22 -32 25 -40 10 -40 -5 0 -10 7 -10
15 0 8 -4 15 -8 15 -5 0 -16 19 -26 43 -10 23 -29 63 -42 89 -24 47 -32 76
-14 48 6 -9 10 -10 10 -3 0 7 -6 16 -13 20 -20 13 -171 195 -173 210 -3 17 10
17 25 0z m2786 -68 c-4 -41 -15 -67 -15 -35 0 9 -4 15 -8 12 -4 -2 -8 4 -8 14
0 10 4 16 8 14 12 -8 9 11 -4 24 -9 9 -7 12 9 12 19 0 21 -5 18 -41z m3459 -9
c38 -13 107 -47 154 -75 86 -53 205 -145 197 -153 -2 -2 -27 16 -55 40 -70 61
-221 150 -300 176 -242 79 -505 34 -559 -96 -17 -40 0 -100 39 -137 36 -35 39
-52 5 -29 -13 8 -35 38 -49 65 -21 42 -23 55 -14 87 40 150 325 210 582 122z
m-3184 25 c0 -15 -38 -55 -52 -55 -5 0 -6 6 -2 13 6 10 4 10 -7 0 -21 -20 -34
-15 -46 16 -11 29 -10 30 26 34 74 8 81 7 81 -8z m-320 -30 c0 -8 -2 -15 -4
-15 -2 0 -6 7 -10 15 -3 8 -1 15 4 15 6 0 10 -7 10 -15z m10 -39 c0 -3 -4 -8
-10 -11 -5 -3 -10 -1 -10 4 0 6 5 11 10 11 6 0 10 -2 10 -4z m3987 -159 c-46
-48 -59 -52 -32 -11 l17 27 -38 -6 c-22 -4 -48 -7 -58 -7 -17 0 -18 -2 -5 -12
8 -7 25 -26 39 -43 14 -16 1 -7 -27 20 -29 28 -49 51 -45 52 19 7 121 21 154
22 l38 1 -43 -43z m-214 2 c12 -7 47 -36 78 -65 49 -46 55 -55 42 -66 -21 -17
-68 -91 -65 -102 2 -5 -4 -6 -13 -2 -9 3 -13 2 -10 -4 20 -33 -74 -9 -111 27
-10 10 -20 18 -23 18 -3 0 -20 10 -38 23 -37 26 -50 27 -75 5 -10 -9 -18 -12
-18 -7 0 6 -10 10 -21 11 -12 1 -20 0 -18 -1 63 -56 103 -86 112 -86 6 0 -4
13 -23 29 -30 25 -33 31 -21 45 14 17 41 22 41 8 0 -5 -10 -13 -22 -19 -22
-10 -21 -11 23 -39 26 -16 55 -34 65 -41 18 -12 18 -12 -1 -6 -11 3 -24 9 -30
13 -11 8 -165 -6 -174 -16 -6 -6 105 3 147 12 12 2 22 0 22 -5 0 -17 -186 -39
-260 -31 -14 2 0 6 30 10 l55 7 -54 -1 c-63 -1 -81 -21 -28 -31 19 -4 68 -4
108 0 41 3 101 6 134 7 41 0 54 3 40 9 -16 6 -12 8 18 8 40 1 51 -16 15 -23
-13 -2 -75 -10 -138 -17 -160 -17 -173 -23 -181 -94 -2 -16 -10 -36 -17 -44
-8 -8 -11 -22 -9 -32 3 -11 0 -22 -5 -26 -7 -3 -8 -1 -4 5 4 7 1 12 -9 12 -10
0 -13 5 -9 12 4 7 3 8 -4 4 -17 -10 -62 23 -55 40 3 8 2 14 -3 13 -21 -4 -34
2 -34 14 0 14 -31 47 -88 93 -18 14 -31 32 -29 38 2 6 -3 16 -12 22 -14 11
-13 20 5 90 15 57 27 82 44 95 23 17 110 31 410 70 47 6 105 15 130 19 25 4
49 8 53 9 5 0 18 -4 30 -10z m167 -13 c0 -9 -30 -14 -35 -6 -4 6 3 10 14 10
12 0 21 -2 21 -4z m-6425 -36 c3 -5 1 -10 -4 -10 -6 0 -11 5 -11 10 0 6 2 10
4 10 3 0 8 -4 11 -10z m3471 -27 c-1 -17 -14 -33 -27 -33 -3 0 -4 11 -1 25 5
28 31 35 28 8z m-44 -33 c-3 -20 2 -37 13 -50 17 -18 16 -19 -8 -25 -33 -9
-47 0 -47 29 0 19 33 76 44 76 1 0 1 -14 -2 -30z m149 -17 c13 -17 13 -17 -6
-3 -11 8 -22 16 -24 17 -2 2 0 3 6 3 6 0 17 -8 24 -17z m-222 -50 c1 -7 -3
-13 -8 -13 -10 0 -21 47 -12 55 6 6 19 -21 20 -42z m-672 10 c-4 -3 -1 -13 6
-21 9 -12 9 -14 0 -9 -7 5 -26 -7 -47 -28 -32 -32 -66 -49 -51 -26 3 6 -3 14
-12 20 -19 11 -14 13 27 15 14 1 25 6 25 11 0 6 -15 9 -34 7 -39 -3 -34 8 12
25 35 13 84 17 74 6z m631 -3 c6 0 12 -5 12 -10 0 -12 -50 -2 -65 13 -7 6 -2
8 15 3 14 -3 31 -6 38 -6z m-810 -31 c42 -1 44 -2 17 -9 -28 -7 -28 -8 -5 -9
15 -1 29 -10 35 -24 10 -21 9 -22 -28 -22 -21 0 -34 1 -28 3 6 2 9 8 6 12 -3
5 -13 6 -22 3 -11 -4 -14 -3 -9 5 5 8 -3 12 -23 12 -19 0 -34 7 -40 19 -14 25
-4 32 26 20 13 -5 45 -10 71 -10z m-2438 -24 c0 -5 -5 -3 -10 5 -5 8 -10 20
-10 25 0 6 5 3 10 -5 5 -8 10 -19 10 -25z m3235 -60 c38 -10 77 -13 107 -10
26 4 71 1 102 -6 47 -10 60 -9 95 5 36 14 41 14 41 1 0 -9 -17 -20 -44 -27
-25 -6 -43 -15 -40 -20 3 -4 -14 1 -38 12 -33 15 -56 17 -109 13 -56 -5 -77
-2 -136 21 -40 15 -82 40 -99 57 l-29 31 45 -31 c25 -17 72 -38 105 -46z
m2985 -6 c0 -4 -7 -10 -16 -13 -10 -4 -38 11 -75 40 -32 25 -59 46 -59 47 0 6
149 -69 150 -74z m-4449 -130 c16 -6 28 -16 26 -22 -6 -19 -22 -18 -44 2 -11
11 -33 21 -48 23 -16 2 -30 8 -32 15 -5 13 47 4 98 -18z m-71 -89 c6 -11 7
-20 2 -20 -6 0 -12 9 -15 20 -3 11 -3 20 -1 20 2 0 8 -9 14 -20z m20 -44 c0
19 20 -23 34 -71 18 -62 23 -106 13 -123 -5 -6 -5 -18 -2 -24 4 -7 -1 -4 -9 6
-14 18 -19 46 -20 113 0 12 -4 19 -8 17 -4 -3 -8 -2 -9 3 -3 34 -11 60 -23 68
-7 6 -17 21 -21 34 -7 24 -7 24 19 -4 14 -15 26 -24 26 -19z m4370 0 c0 -3 -4
-8 -10 -11 -5 -3 -10 -1 -10 4 0 6 5 11 10 11 6 0 10 -2 10 -4z m-4395 -66 c3
-6 -1 -7 -9 -4 -18 7 -21 14 -7 14 6 0 13 -4 16 -10z"/>
<path d="M3010 5430 c0 -5 5 -10 11 -10 5 0 7 5 4 10 -3 6 -8 10 -11 10 -2 0
-4 -4 -4 -10z"/>
<path d="M3017 5399 c7 -7 15 -10 18 -7 3 3 -2 9 -12 12 -14 6 -15 5 -6 -5z"/>
<path d="M3115 5351 c-3 -5 -2 -12 3 -15 5 -3 9 1 9 9 0 17 -3 19 -12 6z"/>
<path d="M2820 5341 c0 -8 41 -23 47 -17 2 1 -8 8 -22 14 -14 6 -25 8 -25 3z"/>
<path d="M3143 5335 c0 -7 6 -11 14 -8 7 3 13 6 13 8 0 2 -6 5 -13 8 -8 3 -14
-1 -14 -8z"/>
<path d="M4260 4716 c0 -2 7 -7 16 -10 8 -3 12 -2 9 4 -6 10 -25 14 -25 6z"/>
<path d="M4330 4685 c0 -2 10 -10 23 -16 20 -11 21 -11 8 4 -13 16 -31 23 -31
12z"/>
<path d="M4536 4455 c4 -8 13 -15 21 -15 13 0 13 -2 2 -17 -12 -16 -12 -17 2
-6 9 8 30 10 55 6 50 -8 43 -1 -28 25 -46 17 -56 18 -52 7z"/>
<path d="M4520 4419 c0 -5 5 -7 10 -4 6 3 10 8 10 11 0 2 -4 4 -10 4 -5 0 -10
-5 -10 -11z"/>
<path d="M4520 4390 c-9 -6 -10 -10 -3 -10 6 0 15 5 18 10 8 12 4 12 -15 0z"/>
<path d="M10088 4936 c-32 -19 -35 -23 -20 -32 10 -7 25 -8 37 -2 18 8 18 8
-2 4 -30 -6 -39 11 -11 20 22 7 57 35 41 33 -4 0 -25 -11 -45 -23z"/>
<path d="M9790 4900 c-8 -5 -10 -10 -5 -10 6 0 17 5 25 10 8 5 11 10 5 10 -5
0 -17 -5 -25 -10z"/>
<path d="M10004 4894 c-18 -14 -18 -14 6 -3 31 14 36 19 24 19 -6 0 -19 -7
-30 -16z"/>
<path d="M9950 4865 c-15 -8 -19 -14 -10 -14 18 -1 46 16 40 23 -3 2 -16 -2
-30 -9z"/>
<path d="M10186 4851 c-4 -5 3 -7 14 -4 23 6 26 13 6 13 -8 0 -17 -4 -20 -9z"/>
<path d="M9650 4830 c-8 -5 -10 -10 -5 -10 6 0 17 5 25 10 8 5 11 10 5 10 -5
0 -17 -5 -25 -10z"/>
<path d="M9598 4693 c6 -2 18 -2 25 0 6 3 1 5 -13 5 -14 0 -19 -2 -12 -5z"/>
<path d="M9385 4594 c-16 -8 -32 -18 -35 -21 -9 -10 44 9 65 23 26 19 7 18
-30 -2z"/>
<path d="M9290 4545 c-25 -14 -51 -25 -57 -25 -20 0 -15 -17 7 -23 10 -3 18
-1 17 3 -3 11 5 12 26 4 11 -4 23 -1 30 6 10 10 7 12 -13 7 -23 -6 -22 -3 10
23 42 35 39 36 -20 5z"/>
<path d="M9260 4475 c-10 -13 -9 -15 11 -14 13 0 18 3 11 6 -6 2 -10 9 -6 14
9 15 -2 10 -16 -6z"/>
<path d="M9235 4430 c-4 -7 3 -8 22 -4 38 9 42 14 10 14 -14 0 -29 -5 -32 -10z"/>
<path d="M3545 5350 c27 -12 43 -12 25 0 -8 5 -22 9 -30 9 -10 0 -8 -3 5 -9z"/>
<path d="M3630 5266 c0 -3 17 -13 38 -22 20 -10 40 -19 45 -21 4 -2 7 -2 7 1
0 3 -17 13 -37 22 -21 10 -41 19 -45 21 -5 2 -8 2 -8 -1z"/>
<path d="M4110 4991 c0 -5 5 -13 10 -16 6 -3 10 -2 10 4 0 5 -4 13 -10 16 -5
3 -10 2 -10 -4z"/>
<path d="M3011 4064 c0 -11 3 -14 6 -6 3 7 2 16 -1 19 -3 4 -6 -2 -5 -13z"/>
<path d="M4352 3865 c0 -16 2 -22 5 -12 2 9 2 23 0 30 -3 6 -5 -1 -5 -18z"/>
<path d="M2972 3575 c0 -16 2 -22 5 -12 2 9 2 23 0 30 -3 6 -5 -1 -5 -18z"/>
<path d="M10265 4800 c-19 -7 -19 -8 -2 -15 19 -8 31 -2 26 13 -2 5 -13 6 -24
2z"/>
<path d="M10440 4789 c0 -5 5 -7 10 -4 6 3 10 8 10 11 0 2 -4 4 -10 4 -5 0
-10 -5 -10 -11z"/>
<path d="M10218 4773 c-21 -5 -24 -23 -4 -23 8 0 16 7 20 15 3 8 4 14 3 14 -1
-1 -10 -3 -19 -6z"/>
<path d="M10175 4680 c3 -5 8 -10 11 -10 2 0 4 5 4 10 0 6 -5 10 -11 10 -5 0
-7 -4 -4 -10z"/>
<path d="M9988 4673 c7 -3 16 -2 19 1 4 3 -2 6 -13 5 -11 0 -14 -3 -6 -6z"/>
<path d="M11690 3630 c16 -11 13 -12 -43 -15 -20 -1 -40 -5 -45 -10 -4 -4 1
-5 10 -2 10 3 24 -1 33 -9 8 -9 15 -11 15 -6 0 5 13 12 30 15 21 5 28 11 24
22 -3 8 -14 15 -23 15 -14 0 -14 -2 -1 -10z"/>
<path d="M10338 4363 c6 -2 18 -2 25 0 6 3 1 5 -13 5 -14 0 -19 -2 -12 -5z"/>
<path d="M10395 4240 c-3 -5 -20 -8 -38 -6 -29 4 -30 3 -12 -10 25 -18 28 -18
50 6 10 11 15 20 12 20 -3 0 -9 -4 -12 -10z"/>
<path d="M10165 4150 c-3 -6 1 -7 9 -4 18 7 21 14 7 14 -6 0 -13 -4 -16 -10z"/>
<path d="M10169 4113 c-13 -16 -12 -17 4 -4 9 7 17 15 17 17 0 8 -8 3 -21 -13z"/>
<path d="M9228 4333 c7 -3 16 -2 19 1 4 3 -2 6 -13 5 -11 0 -14 -3 -6 -6z"/>
<path d="M1203 3750 c-14 -76 -30 -214 -36 -320 -7 -106 8 -21 23 135 6 66 16
141 22 167 5 26 8 56 6 65 -2 10 -9 -11 -15 -47z"/>
<path d="M1920 3621 c-12 -24 -13 -34 -1 -27 9 6 22 46 15 46 -2 0 -8 -9 -14
-19z"/>
<path d="M9160 4182 c0 -4 6 -14 13 -21 10 -11 10 -14 0 -18 -19 -7 -16 -20 7
-26 24 -6 25 4 5 43 -15 29 -25 38 -25 22z"/>
<path d="M9212 4120 c0 -14 2 -19 5 -12 2 6 2 18 0 25 -3 6 -5 1 -5 -13z"/>
<path d="M9183 4030 c5 -78 37 -173 45 -135 2 10 -1 21 -7 23 -6 2 -11 22 -11
45 0 24 -4 37 -8 30 -4 -7 -9 13 -10 44 -1 31 -5 59 -8 62 -4 3 -4 -28 -1 -69z"/>
<path d="M9213 4045 c0 -22 2 -30 4 -17 2 12 2 30 0 40 -3 9 -5 -1 -4 -23z"/>
<path d="M9251 3404 c0 -11 3 -14 6 -6 3 7 2 16 -1 19 -3 4 -6 -2 -5 -13z"/>
<path d="M9665 3880 c4 -6 11 -8 16 -5 14 9 11 15 -7 15 -8 0 -12 -5 -9 -10z"/>
<path d="M8190 3643 c0 -20 37 -56 48 -49 15 9 15 26 0 26 -6 0 -20 7 -30 17
-10 9 -18 11 -18 6z"/>
<path d="M7994 3611 c-53 -13 -56 -19 -27 -61 26 -41 40 -52 30 -25 -4 8 -2
17 3 20 15 9 12 25 -4 19 -29 -11 -25 14 4 26 17 7 33 17 36 21 6 10 2 10 -42
0z"/>
<path d="M7730 3575 c-10 -12 -16 -13 -26 -4 -20 17 -17 6 6 -21 16 -18 20
-20 20 -7 0 10 7 17 15 17 8 0 15 -4 15 -10 0 -5 9 -10 21 -10 15 0 20 5 17
23 -4 27 -48 36 -68 12z"/>
<path d="M8230 3549 c0 -5 5 -7 10 -4 6 3 10 8 10 11 0 2 -4 4 -10 4 -5 0 -10
-5 -10 -11z"/>
<path d="M8801 3675 c-63 -30 -62 -44 1 -22 24 9 56 18 71 22 29 6 28 25 -1
25 -9 0 -41 -11 -71 -25z"/>
<path d="M8857 3636 c-37 -11 -57 -29 -57 -52 0 -9 11 -9 40 -2 29 8 45 19 56
39 16 32 16 32 -39 15z"/>
<path d="M8543 3623 c-46 -9 -21 -21 47 -25 39 -2 70 1 70 5 0 14 -78 27 -117
20z"/>
<path d="M8602 3564 c-15 -16 -36 -19 -27 -4 3 6 -1 10 -9 10 -9 0 -16 -4 -16
-9 0 -17 29 -32 67 -36 24 -3 31 -1 19 4 -17 7 -16 8 7 24 25 16 26 16 30 -6
4 -19 4 -19 6 5 1 23 -3 26 -31 26 -18 0 -39 -6 -46 -14z"/>
<path d="M8711 3504 c-1 -29 4 -44 14 -48 17 -6 20 5 6 20 -5 5 -11 23 -14 39
-3 24 -4 22 -6 -11z"/>
<path d="M8745 3440 l-30 -8 30 -1 c17 0 37 4 45 9 13 9 13 10 0 9 -8 -1 -28
-5 -45 -9z"/>
<path d="M10105 3790 c-3 -5 -1 -10 4 -10 6 0 11 5 11 10 0 6 -2 10 -4 10 -3
0 -8 -4 -11 -10z"/>
<path d="M10552 3713 c-29 -41 -36 -71 -21 -90 7 -8 12 -32 11 -52 l-3 -36 20
25 c11 14 26 36 33 49 11 21 10 26 -16 47 -24 21 -26 27 -15 42 7 9 14 19 16
21 1 1 12 -4 24 -13 20 -14 21 -16 5 -22 -15 -6 -15 -8 4 -21 30 -21 35 -10
19 34 -19 49 -49 55 -77 16z"/>
<path d="M9944 3645 c-16 -12 -16 -14 -3 -15 9 0 22 7 29 15 16 19 0 19 -26 0z"/>
<path d="M10038 3611 c-56 -8 -65 -15 -48 -36 8 -10 30 -15 61 -15 63 0 201
20 213 31 26 24 -110 36 -226 20z"/>
<path d="M10608 3599 c-9 -9 -19 -28 -23 -41 -4 -12 -13 -26 -19 -30 -8 -6 -8
-8 1 -8 10 0 68 90 61 95 -2 1 -10 -6 -20 -16z"/>
<path d="M10179 3551 c25 -17 -35 -25 -80 -11 -46 15 -59 9 -27 -12 45 -29
101 -28 148 1 18 12 13 18 -25 26 -22 5 -26 4 -16 -4z"/>
<path d="M10068 3208 c5 -5 16 -8 23 -6 8 3 3 7 -10 11 -17 4 -21 3 -13 -5z"/>
<path d="M5007 3584 c-11 -14 -17 -27 -14 -30 2 -3 12 7 21 21 10 16 23 24 32
21 8 -3 14 -1 14 4 0 20 -35 9 -53 -16z"/>
<path d="M5023 3554 c-7 -7 -13 -28 -13 -46 l1 -33 15 28 c19 34 16 73 -3 51z"/>
<path d="M5595 3480 c3 -5 17 -10 31 -10 13 0 24 5 24 10 0 6 -14 10 -31 10
-17 0 -28 -4 -24 -10z"/>
<path d="M4291 3313 c-1 -12 -4 -29 -8 -39 -4 -12 -3 -15 5 -10 8 5 12 -1 13
-16 1 -13 3 -16 5 -8 3 9 0 33 -5 55 -5 22 -9 30 -10 18z"/>
<path d="M8440 3309 c0 -5 5 -7 10 -4 6 3 10 8 10 11 0 2 -4 4 -10 4 -5 0 -10
-5 -10 -11z"/>
<path d="M10910 3066 c0 -9 -8 -16 -20 -16 -13 0 -20 -6 -19 -17 0 -10 3 -13
6 -6 2 7 20 15 39 19 35 6 42 26 11 32 -10 2 -17 -3 -17 -12z"/>
<path d="M10796 2968 c5 -7 2 -9 -7 -6 -16 6 -66 -38 -55 -49 3 -4 12 -1 18 5
16 16 36 15 40 -1 2 -9 11 -11 28 -6 24 7 24 7 3 8 -28 1 -33 41 -5 41 14 0
15 2 2 10 -21 13 -33 12 -24 -2z"/>
<path d="M10973 2969 c15 -9 16 -13 6 -25 -10 -12 -9 -18 6 -32 10 -9 15 -11
11 -4 -4 6 -2 12 4 12 13 0 9 31 -7 48 -6 6 -18 12 -25 12 -8 0 -6 -5 5 -11z"/>
<path d="M10700 2944 c-14 -7 -20 -14 -13 -14 7 0 10 -6 7 -13 -3 -8 2 -14 10
-14 8 0 16 12 18 29 3 15 4 28 4 27 -1 -1 -12 -7 -26 -15z"/>
<path d="M4328 3163 c7 -3 16 -2 19 1 4 3 -2 6 -13 5 -11 0 -14 -3 -6 -6z"/>
<path d="M9110 3191 c0 -5 -8 -12 -17 -14 -14 -4 -13 -5 3 -6 12 0 24 6 28 14
3 8 1 15 -4 15 -6 0 -10 -4 -10 -9z"/>
<path d="M6011 3074 c0 -11 3 -14 6 -6 3 7 2 16 -1 19 -3 4 -6 -2 -5 -13z"/>
<path d="M6050 2904 c0 -3 6 -11 13 -19 11 -11 15 -10 24 4 9 14 6 17 -13 19
-13 1 -24 -1 -24 -4z"/>
<path d="M1915 2874 c3 -10 16 -50 30 -89 26 -72 24 -35 -2 45 -15 46 -37 80
-28 44z"/>
<path d="M7945 3215 c-16 -8 -23 -14 -14 -15 8 0 24 7 35 15 23 18 18 18 -21
0z"/>
<path d="M7953 3153 c9 -2 23 -2 30 0 6 3 -1 5 -18 5 -16 0 -22 -2 -12 -5z"/>
<path d="M6007 2783 c-4 -3 -7 -11 -7 -17 0 -6 5 -5 12 2 6 6 9 14 7 17 -3 3
-9 2 -12 -2z"/>
<path d="M10915 2860 c-3 -5 -2 -10 4 -10 5 0 13 5 16 10 3 6 2 10 -4 10 -5 0
-13 -4 -16 -10z"/>
<path d="M7470 2748 c-12 -22 -12 -22 6 -6 10 10 15 20 12 24 -4 3 -12 -5 -18
-18z"/>
<path d="M3311 2100 c-19 -17 -26 -18 -39 -8 -13 12 -14 11 -2 -9 12 -19 16
-20 36 -6 12 8 25 21 28 29 7 18 6 18 -23 -6z"/>
<path d="M3405 1749 c-4 -6 -5 -12 -2 -15 2 -3 7 2 10 11 7 17 1 20 -8 4z"/>
<path d="M5870 2530 c0 -5 7 -10 16 -10 8 0 12 5 9 10 -3 6 -10 10 -16 10 -5
0 -9 -4 -9 -10z"/>
<path d="M10634 2295 c-1 -14 2 -22 7 -19 11 6 12 44 2 44 -5 0 -9 -11 -9 -25z"/>
<path d="M11199 1979 c18 -11 35 -18 38 -15 5 5 -50 36 -64 36 -4 0 7 -9 26
-21z"/>
<path d="M11130 1885 c0 -2 10 -10 23 -16 20 -11 21 -11 8 4 -13 16 -31 23
-31 12z"/>
<path d="M7281 2094 c0 -11 3 -14 6 -6 3 7 2 16 -1 19 -3 4 -6 -2 -5 -13z"/>
<path d="M5829 2143 c-13 -16 -12 -17 4 -4 16 13 21 21 13 21 -2 0 -10 -8 -17
-17z"/>
<path d="M10800 2139 c0 -5 9 -9 20 -9 11 0 20 2 20 4 0 2 -9 6 -20 9 -11 3
-20 1 -20 -4z"/>
<path d="M10810 2104 c0 -8 5 -12 10 -9 6 4 8 11 5 16 -9 14 -15 11 -15 -7z"/>
<path d="M6010 2105 c-14 -16 -10 -18 14 -9 9 3 16 10 16 15 0 14 -16 11 -30
-6z"/>
<path d="M7593 1555 c0 -33 2 -45 4 -27 2 18 2 45 0 60 -2 15 -4 0 -4 -33z"/>
<path d="M7592 1369 c1 -86 3 -103 8 -69 7 43 3 170 -5 179 -3 2 -4 -47 -3
-110z"/>
<path d="M7591 944 c0 -11 3 -14 6 -6 3 7 2 16 -1 19 -3 4 -6 -2 -5 -13z"/>
<path d="M3855 1047 c-4 -10 -5 -21 -1 -24 10 -10 18 4 13 24 -4 17 -4 17 -12
0z"/>
<path d="M9812 1021 c-20 -12 -10 -45 13 -49 15 -2 17 -1 6 6 -19 14 -7 40 21
45 22 4 22 4 -2 5 -14 1 -31 -2 -38 -7z"/>
<path d="M10168 973 c7 -3 16 -2 19 1 4 3 -2 6 -13 5 -11 0 -14 -3 -6 -6z"/>
<path d="M10088 963 c6 -2 18 -2 25 0 6 3 1 5 -13 5 -14 0 -19 -2 -12 -5z"/>
<path d="M9530 791 c0 -6 4 -13 10 -16 6 -3 7 1 4 9 -7 18 -14 21 -14 7z"/>
<path d="M9725 650 c-3 -5 -1 -10 4 -10 6 0 11 5 11 10 0 6 -2 10 -4 10 -3 0
-8 -4 -11 -10z"/>
<path d="M6425 850 c4 -6 11 -8 16 -5 14 9 11 15 -7 15 -8 0 -12 -5 -9 -10z"/>
<path d="M5660 5081 c0 -5 5 -13 10 -16 6 -3 10 -2 10 4 0 5 -4 13 -10 16 -5
3 -10 2 -10 -4z"/>
<path d="M7830 5005 c-7 -9 -11 -17 -9 -20 3 -2 10 5 17 15 14 24 10 26 -8 5z"/>
<path d="M9955 370 c3 -5 8 -10 11 -10 2 0 4 5 4 10 0 6 -5 10 -11 10 -5 0 -7
-4 -4 -10z"/>
</g>
</svg>
